<svg xmlns="http://www.w3.org/2000/svg" version="1.1" x="0" y="0" viewBox="0 0 1570 1215" xml:space="preserve"><style type="text/css">
	.st0{fill:#FDB4AC;}
	.st1{fill:#96EDE8;}
	.st2{fill:#FFCDAB;}
	.st3{fill:#FFAB72;}
	.st4{opacity:0.8;fill:#FFE500;}
	.st5{fill:#C3E6EF;}
</style><path class="st0" d="M84.3 247c1.7-0.3 3.8-0.1 5-1.1 3.1-2.4 7.3-3.3 9.6-6.9 0.4-0.6 1.3-1 2.1-1.2 4.6-0.9 6.2-4.7 7.2-8.3 0.8-2.8 2.1-4.5 4.2-6 1.8-1.2 2.9-2.7 0.7-4.9 5.8-4.1 11.5-8.3 17.4-12.2 1-0.6 2.6-0.2 4.2-0.2 0.1-0.6 0.4-1.3 0.3-1.8 -0.8-2.8 0.5-3.9 3-5 2.6-1.2 5.7-2.2 6.7-5.7 0.4-1.1 2.2-1.7 3.2-2.8 1.5-1.6 2.7-3.4 4.2-5 1.8-1.9 3.7-3.7 5.7-5.5 5-4.5 10.1-8.9 15.1-13.4 5-4.5 10.1-8.9 14.9-13.7 2-2 3.3-4.7 4.5-7.3 1.6-3.5 3.4-6.4 7-8.2 5.4-2.8 10.6-5.9 16.4-9.1 -0.3-3.5-0.4-7-0.9-10.4 -0.2-1.6 0.2-2.7 1-4 1.8-2.5 3.1-5.4 5.1-7.7 2.6-2.8 5.3-5.8 8.6-7.6 2.8-1.5 5.2-2.5 5.1-5.7 2.1-0.8 3.7-1.4 5.5-2.1 0.4 0.4 1.1 0.8 1.1 1.3 0.7 4.4 4 5.8 7.7 6.1 2.3 0.2 3.9 0.9 5.6 2.3 1.3 1.1 3 1.6 5.2 2.6 2.3 3.3 3 10 10.9 7.8 0.1 1.7 0.3 3.2 0.4 4.7 4.7-0.8 8.9-0.6 11.7 3.9 4.5 1.3 7.3 5.5 12.4 6.2 3.3 0.5 6.2 3.9 9.1 6.2 1.9 1.5 3.4 3.4 5 5.2 0.8 0.8 1.8 1.7 2 2.7 0.5 2.6 0.9 4.9 4.4 4.5 0.2 0 0.7 0.2 0.8 0.5 1.4 3.5 4.2 2.7 7.1 2 0.3 1.2 0.3 2.2 0.7 3 0.6 1 1.5 2 2.5 2.5 2.6 1.4 5.4 2.8 8.2 3.9 2.5 1 5.1 1.7 7.7 2.4 3.9 1.1 7.5 2.6 10.2 6.9 -2.1 0.5-3.7 0.9-5.3 1.2 -4.3 0.8-4.8 2.1-2 5.7 -1.1 0.8-2.1 1.6-3.3 2.4 1.2 2.3 2.2 4.3 3.3 6.5 1.4 0 3.2-0.3 4.7 0.3 1.5 0.6 2.7 2.1 4.3 3.4 -2 2.8 0 5.2 2 8.3 1.6-3.2 3.8-4.5 6.8-3.3 0.9 0.3 1.4 1.4 2.1 2.2 -0.7 0.5-1.3 1-2.1 1.4 -0.8 0.4-1.6 0.6-2.5 0.9 1.2 1.5 2.2 2.7 3.3 4.1 1.2-0.6 2.3-1.2 3.4-1.7 3 3 3 4.6 0.2 7 -0.6 0.6-1.5 1.5-1.4 2.1 0.2 1.2 0 1.8-1.2 2.2 -0.4 0.2-1.2 0.7-1.1 0.8 1.7 3.5-2.2 6-1.8 9.5 1.2 0.2 2.2 0.4 3.5 0.7 0 1.4-0.1 2.8-0.1 4.2 0.2 0.3 0.3 0.7 0.5 0.8 3.8 1.9 5 5.8 7.2 9 1.7 2.5 3.5 5 5.5 7.9 -0.1 0.2-0.7 1.1-0.9 2.1 -0.5 3.8-1.6 4.8-5 3.9 -1.8-0.5-3 0.1-4.4 1 -3.5 2.3-7.2 4.4-10.9 6.4 -1.5 0.8-3.2 1.2-5 1.9 0.2-3.2 0.2-3.2 5.1-4 -0.9-1.3-1.7-2.3-2.4-3.3 -4.2 2.3-8.3 4.5-12.3 6.6 1 4.6 3 0.7 5 0.7 -2 1.7 0.5 4.2-1.6 6 -0.2 0.2 1.1 2.2 1.8 3.7 -4.4 1.4-7.6-1.8-12-2.9 -0.5 1.6-1 3.2-1.5 5 -2.2-1.7-4.3-0.7-6.6 1.3 -5.1 4.7-10.3 9.3-15.6 13.8 -1.7 1.4-3.8 2.6-5.9 3.3 -1.5 0.5-3.7 0.5-5-0.3 -2.2-1.4-4-1.1-5.9 0.1 -2.7 1.7-5.3 3.7-8 5.4 -11.1 7.2-22.1 14.5-33.2 21.5 -4.3 2.7-9.1 4.8-13.7 7.1 -0.5 0.3-1.2 0.2-1.9 0.3 -0.5-0.8-0.9-1.4-1.3-2.1 -1-2.1-2.4-2.8-4.7-2.1 -2.4 0.7-5 1.1-7.9 1.7 2.9 4.7 7.4 1.3 11.5 2.2 -0.8 1.2-1.1 2.3-1.8 2.8 -3.7 2.3-7.6 4.4-11.3 6.7 -1.8 1.1-3.3 0.8-5.2-0.5 0.4-1.4 0.8-2.8 1.3-4.5 -2.9-1.2-5.4-1.8-7.3 1.2 -0.3 0.4-0.7 0.9-1 1 -4.8 0.5-8.3 3.4-11.6 6.5 -0.2 0.2-0.6 0.6-0.8 0.5 -5-1.5-6.6 4.6-10.9 4.8 -0.6 0-1.2 1.3-1.6 2.1 -0.6 1.3-1.4 2.8-1.2 4.1 0.6 5.3-2.2 9.6-4.2 14 -1.4 3.2-4.8 5.5-7.3 8.1 -0.1 0.1-0.8-0.3-1.1-0.4 0.1-2.6 0.2-5 0.2-7.7 1.5 0.1 4 1.4 5.1-1.5 -0.8-1.5-1.7-3.1-2.6-4.9 -1.3 0-2.9 0-4.5 0 -1 1.8-1.8 3.5-3.2 6 -0.5-2.1-0.7-3.4-1-4.7 -0.5 0-1.2-0.3-1.4-0.1 -4 3.6-8 7.4-12 11 -0.8 0.7-1.6 1.6-2.6 1.9 -4.3 1.3-4.3 1.2-6.7 4 -0.9-1-1.9-2.1-2.7-3 -5.3 1.2-8.7 4.5-10.9 8 -2.6 0.7-4.7 0.8-6.3 1.7 -4.1 2.6-8.1 5.4-11.8 8.5 -1.8 1.5-3 3.8-4.1 5.9 -1.4 2.6-2.6 4.1-6.2 3.8 -3.2-0.3-6.8 0.2-9 4.1 -0.9 1.5-2.5 2.8-2.8 4.8 -6-0.6-9 3.4-12.2 7.1 -0.6 0.7-0.9 1.8-1.5 2.5 -0.7 0.7-1.8 1-3 1.5 0.1 0.3 0.2 1 0.2 1.1 -3.3 3.2-6.3 6.3-9.5 9.1 -1.1 1-2.8 1.4-4.7 2.3 -0.2-1.2-0.5-2.5-0.7-3.7 -6.7 4.5-13.6 9-20.5 13.7 2.5 2.6 4.4-1.2 7.2-0.4 -2.3 2.8-4.4 5.4-6.5 8.1 -0.2-1.6-0.4-3.1-0.7-4.7 -0.4 0-0.8-0.1-1.1-0.1 -0.5 1-1.6 2.1-1.4 3 0.2 1 1.5 1.9 2.3 2.8 0.3-0.4 0.7-0.9 1-1.3 1 1.1 2.1 2.1 3.3 3.4 -1.4 1.4-3.1 3-4.9 4.8 -0.8-0.9-1.4-1.9-2.3-2.4 -1.6-0.8-3.4-1.1-5-1.7 -1.9-0.7-2.7 1.2-3.8 1.6 -4.2 1.4-7 4.1-9.8 7.2 -2.2 2.4-5 4.5-8.7 5.1 0.1 1 0.1 2 0.4 2.9 0.8 2.4 2.8 2.9 4.9 1.4 0.9-0.6 1.8-1.4 2.7-2 0.4-0.2 0.9-0.3 1.8-0.6 -2.1 5-8.9 4-10 9.6 -0.9-1.3-1.3-2.6-2.2-3 -0.6-0.3-1.8 0.6-3.2 1.1 0.3-1.2 0.5-2.1 0.7-3 0.2-0.9 0.2-1.9 0.4-2.8 -5.8-2.5-8.9 1.8-12 5 -1.3 1.4-2.4 2.8-4 3.8 -2 1.3-3.6 3.1-5.6 4.9 -3.3-0.8-3.1-0.6-5.5 2.6 -1.2 1.7-3.5 2.5-5.3 3.7 0.7-2 1.5-3.7 1.7-5.4 0.3-2 1.5-3 3.1-3.1 2.9-0.2 2.2-2.1 2.6-3.6 -2.1-1.2-3.3-0.3-4.4 0.9 -2.4 2.6-4.9 5.1-7.2 7.8 -0.7 0.8-1.8 1.9-1.8 2.8 0.1 3-1.6 3.9-4.1 5 -4.5 2-8.8 4.5-13 7.2 -3.3 2.1-6.2 4.7-9.2 7.3 -3.7 3.1-7.4 6.3-12.8 3.9 -0.4-0.2-1.2 0.4-2.1 0.7 0.2 0.9 0.7 2 0.5 2.6 -0.4 1-1.3 2.5-2.1 2.6 -4.5 0.5-7.5 3.4-10.8 6.1 -3.2 2.7-6.5 5.2-9.9 7.6 -1 0.7-2.4 0.6-4.5 1 -0.2 1-0.7 2.7-1.2 4.6 -0.4-0.2-1.1-0.5-1.7-1 -2.8-2-4.4-2.1-7-0.3 -6.4 4.5-12.6 9.4-19.2 13.7 -7.8 5.1-15.9 10-24 14.7 -2.6 1.5-6 1.6-7.7 4.6 -3.8-1.2-5.2 3.9-9 3.5 -1.4-0.1-3.2 2-4.7 3.2 -1.9 1.7-3.7 3.7-5.4 5.4 1.1 1.9 2.3 3.8 3.6 5.9 0.5-0.1 1.4-0.3 2.3-0.5 0.1 0.3 0.2 0.7 0.1 0.8 -0.3 0.6-0.6 1.3-1.1 1.5 -6.4 3.2-12.1 7.8-19.5 8.8 -0.3 0-0.5-0.3-1-0.5 5.7-3.2 10.2-7.6 14.8-13.3 -8.1 1.2-14.4 4.2-20 8.6 -0.8 0.7-1.8 1.4-2.8 1.5 -2.5 0.3-3.5-1.1-2.3-3.5 0.7-1.5 1.3-3-0.2-3.8 -1-0.5-2.9-0.2-3.9 0.6 -1.8 1.5-3.3 3.5-4.9 5.2 0.2 0.3 0.4 0.5 0.6 0.8 0.8-0.2 1.6-0.6 2.4-0.7 0.7-0.1 1.4 0.1 2.2 0.2 -1.8 3-3.4 5.6-5.5 9 -0.7 0.2-3.1-1.6-3.9 1.3 -0.1 0.3-1.1 0.5-1.7 0.5 -4.2-0.6-6.8 1.2-8.5 4.9 -0.2 0.4-0.7 0.7-1.3 1.3 -3.3-2.2-5.4 0-7.5 2.3 -1.8 2-4 3.6-6 5.4 -0.4 0.3-0.9 0.8-1.2 0.7 -2.5-0.9-4 0.9-6 1.8 -2 0.9-3.6 1.7-4.9 3.3 -1.4 1.8-3.1 1.4-3.8-0.3 -0.6-1.5-1.9-1.3-2.6-1.9 -3.5-3.3-6.6-1.1-8.9 0.8 -4.2 3.8-8.6 6.8-15.1 6.2 1 1.6 1.5 2.5 2 3.3 -2.7 1-5.2 1.6-7.7-0.5 -2.9 2.3-5.6 4.5-8.3 6.7 -0.2 0.2-0.6 0.5-0.8 0.5 -5.2-0.7-6.8 3.4-9.1 7.1 -0.9-0.4-1.7-0.7-2.5-1 -3 1.9-5.9 3.4-9.8 3.9 -4.4 0.6-8.5 3.6-13.1 5.7 -2-0.6-4.5-1.5-6.8-2.3 -2.7 1.7-4.2 3.6-4.7 6.7 -0.5 3.4-3.1 5.7-5.6 7.9 -0.4-0.2-0.9-0.3-1.3-0.5 0.8-0.8 1.6-1.6 2.4-2.4 -0.4-0.3-0.8-0.7-1.2-1 -1.9 0.5-3.7 1.4-5.6 1.5 -2.2 0.2-3.6 0.7-4.2 3.1 -0.1 0.5-2 1-2.8 0.8 -4.1-0.9-6.9 0.1-8.5 4.2 -0.5 1.3-1.7 2.4-2.5 3.5 -3.7 0.3-7.3 0.6-11.2 0.9 0 1.3-0.1 2.7-0.1 4 -3.6 1.8-3.6-1.3-4.4-3.4 -1.3 0.5-2.4 1-3.6 1.5 -0.4-1.6-0.4-3.4-1.2-4.1 -0.9-0.8-2.7-0.7-5-1.2 1.6-1.6 2.6-2.7 3.9-3.9 -0.6-1.2-1.4-2.5-1.5-2.9 -3.7-2-6.6-3.5-9.9-5.2 0.2-1.5 0.5-3.1 0.7-5 3.1-0.1 6.1-0.9 8.6-0.2 1.8 0.5 2.6-0.5 3.8-0.8 1.9-0.5 4.1-0.7 5.8-1.5 2.1-1 4.4-1.9 5.7-4.2 0.8-1.5 2.2-2.8 3.6-3.8 2.8-1.9 4.3-4.6 5.8-7.5 1.9-4.1 4-8 6.4-11.8 0.9-1.5 2.8-2.4 4.3-3.4 2.4-1.6 2.7-3.8 1.9-6.4 -3.7-0.6-7.3-0.7-10.5 1.9 -0.6 0.5-1.8 0.7-2.7 0.6 -3.3-0.3-3.3-0.3-2.8 3.2 0 0.1-0.1 0.3 0 0.2 -1.1 1-2.2 1.7-2.9 2.6 -1.5 2-3.5 1.3-4.1-0.4 -0.4-1-0.4-2.2-0.7-3.2 -0.5-1.6-0.9-3.4-1.8-4.8 -2-3.5-2.1-3.4-6.1-1.8 -0.6-0.9-1.3-1.8-1.7-2.9 -0.7-2.1-2.1-2.6-4.2-3.2 -3.2-1-6.1-3.2-10-5.3 1.9-0.8 2.7-1.1 3.9-1.6 -1-1.6-1.9-3.1-2.5-4.2 1.4-1.8 2.6-3.6 4-5.1 1.4-1.5 2.8-3.1 4.5-4.2 1.5-0.9 2-3.5 4.7-2.7 0.7 0.2 2.3-0.8 2.6-1.6 1.7-3.7 5.3-4.5 8.5-5.9 2.1-0.8 4.1-1.7 6.1-2.5 -0.3-1.9-0.6-3.3-0.6-4.6 0-1.2 0.4-2.5 0.7-4.5 1 2.7 1.7 4.7 2.7 7.5 1.5-2.7 3.1-4.7 3.8-7 0.4-1.4-0.1-3.4-2.5-4 -2.2-0.6-4.2-1.7-6.2-3.4 2.9-0.4 5.8-1.2 8.7-1 2.6 0.2 3.8-0.3 4.4-2.9 0.5-2 1.6-2.9 4.5-2.6 3.3 0.4 7.4 1.3 10.2-2.2 0.7-0.8 1.9-1.2 2.8-1.8 -3.1-5.5-7.3-0.3-10.8-0.8 -2.5-3.6 1.2-4.4 2.5-6.2 1.4-1.9 2.8-3.8 4.6-6.2 -0.2-0.7-0.7-2-1.2-3.2 3.6-5.9 8.4-10.6 14.1-14.4 1.3-0.9 2-2.7 3.3-4.6 0.6-0.1 1.8-0.3 3.6-0.5 -0.8-1.1-1.3-1.8-2-2.8 0.9-0.4 1.7-0.9 2.6-1.2 0.7-0.2 1.5-0.1 2.5-0.8 -0.9-0.4-1.8-0.8-3-1.4 2.3-3.1 4.2-6.3 7.8-8.3 2.7-1.5 4.8-3.9 7.2-5.9 1.2-1 1.5-2.1 0.2-3.4 -2.1 0.4-4.3 0.9-7.4 1.5 1.1-1.4 1.4-2.4 2-2.7 3.4-1.4 6.9-2.5 10.4-3.8 0.6-0.2 1.3-0.2 1.8-0.6 4.9-3.7 11-4.3 16.4-6.7 3-1.3 6.2-2.4 8.1-5.6 0.6-1.1 2.3-2 3.6-2.1 3.4-0.1 5.5-1.8 7.7-4.2 2.3-2.6 5.4-3.1 8.8-1.8 -0.1 0.5 0 1-0.2 1.1 -1 0.6-3 0.7-2 2.5 0.3 0.5 2.6 0.7 3.3 0.2 1.6-1.2 2.7-2.9 4.5-5 2-0.7 4.8-1.6 8-2.6 -1-5.7 4.1-6.2 7.8-8.2 -0.1-0.8-0.2-1.8-0.4-2.7l0 0.2c0.6-0.8 1.1-1.6 1.7-2.4 1-1.6 1.2-1.7 3.8-1.7 1.1-2.4 2.2-4.9 3.2-7 3.3-1.7 6.4-3.3 9.5-4.9 1.4-0.7 2.8-1.7 4.3-2.1 3.4-0.8 6.9-1.2 10.3-2 2.4-0.6 5.2-0.4 6.6-3.2 0.2-0.4 0.8-0.6 1.2-0.8 3.8-1.6 6-3.3 8.6-7.2 -0.5-0.5-0.9-1.1-1.5-1.6 -0.4-0.4-0.9-0.8-2-1.8 1.4-0.5 2.5-1.4 3.1-1.1 2.1 1 3.6-0.5 5.3-0.8 5.5-1.1 8.6-6.3 13.8-7.5 4.3-1 8.5-2.4 12.9-3.9 0.1 0.9 0.2 1.5 0.3 2.4 1.3-0.1 2.7-0.1 4.3-0.2 1-4.3 4.6-4.6 7.9-4.7 1.8-0.1 3.1-0.2 4.2-1.7 0.5-0.7 1.5-1.3 2.3-1.7 2.4-1.1 4.9-2.1 7.3-3.1 0.1 0.8 0.2 1.9 0.5 4.2 3-5.1 4.3-10.5 10.4-10.6 0.8-2.6-3.8-2.7-1.9-5.6 1.6 0.2 3.4 0.4 4.6 0.5 0.1 1.4-0.3 3.2 0.4 4.2 0.5 0.7 2.5 0.3 4.2 0.4 -0.1-1.4 0.1-2.4-0.3-2.9 -2-2.6-1.1-4.6 1.2-6.1 3.1-1.9 6.5-3.5 9.8-5.2 2 1.5 2.9-0.6 4.4-1 2.3-0.7 2.2-2.4 2.7-4.2 3.2 1 5.5-0.3 7.6-2.3 3.2-3 3.2-3 1.7-6.6 2.3-5.1 7.6-6.3 11.7-9 1.4-0.9 2.7-0.8 3.9 0.6 1.1 1.4 2.4 2.6 4 4.1 0.7-0.4 2-0.8 2.1-1.4 0.4-1.4 0.3-2.9 0.3-4.4 0-1.2-0.2-2.4-0.3-4 -1.5-1.2-2.7 3.9-4.9 0.8 1.3-0.8 2.6-1.8 4-2.3 1.3-0.4 2.8 0 3.1-2.1 0.1-0.6 2.2-1.7 2.8-1.4 3.8 1.8 4.7-1.4 7.1-4 -2 0.1-3 0.2-4.4 0.3 1.1-1.4 2.1-2.7 3.2-4.1 2.3 0.7 4.6 1.1 6.7-0.9 0.8-0.7 2.1-0.9 3.1-1.3 1.7-0.8 3.3-1.3 4.6 0.8 0.3 0.5 1.5 0.3 3.4 0.7 -2.6-3.3-1.8-5.7-0.5-7.8 4.1-2 7.9-3.8 9.3-8.7 0.4-1.4 2.9-2.2 5-3.7 1.7 1.7 3.3 3.3 5.2 5.3 0.4-0.4 1.3-0.9 1.9-1.7 1.8-2.6 3.9-4.6 7.1-5.1 1.6-0.3 3.2-0.6 3.4-2.8 -1.9 0.1-3.7 0.1-5.5 0.4 -1.2 0.2-2.5 0.7-3.4 1.5 -3 2.6-3.7 2.8-7.1 1 -1.4-0.7-2.8-1.5-4.1-2.2 -3.4 1.5-4.8 5.7-9.1 5.7 -0.7-3 1.5-3.2 3.3-4.1 1.7-0.8 3.1-2.2 4.6-3.4 1.6-1.3 3.1-2.6 4.9-4.1 0-0.5-0.1-1.4-0.1-2.2 2.4-0.6 4.8-0.8 6.9-1.7 2.1-0.9 4.8-1.8 3.2-5.2 2.7-0.9 5.8-0.7 8-3.3 1.4-1.7 4.1-1.3 6.6 0.4 -3.4 2.1-7.4 3.4-9.1 7.3 8.3-0.4 13.7-6 19.4-11 1.5-1.3 2.9-2.5 4.8-3 2.5-0.7 4.8-1.8 6.2-4.2 0.2-0.4 0.6-0.8 1-1 3.7-2.2 7.5-4.3 11.3-6.5 3.3-1.9 6.5-3.8 9.8-5.7 1.9-1.1 3.9-2 5.8-3 0.5 0.7 0.8 1.2 1.7 2.3 3.6-8.4 10.6-12.5 18-16 1.2 2 2.3 3.8 3.2 5.3 -4 3.5-8.2 7.4-12.6 10.9 -1.9 1.5-4.4 2.3-6.7 3.5 3.2 3.9 3.3 3.9 7 2.4 2.2-0.9 4.6-1.6 6.8-2.7 2.1-1.1 4.1-2.4 5.9-3.8 1.6-1.2 3.4-2.2 5-3.3 3.6-2.6 8.6-3.9 10.2-8.9 0.3-0.8 1.1-1.5 1.8-2.1 1.2-1.1 2.5-2.1 3.9-3.2 0 1.2 0 2.7-0.1 4.1 -2.2 1.2-4.5 2.2-5 5.4 1.5-0.8 2.7-1.5 3.9-2C85.1 249.7 85.2 248.5 84.3 247zM-315.1 521.7c1.5 0.4 3 1 4.5 1.1 3.9 0.3 3.4-5 6.8-5.6 0.1 0-0.1-1.4-0.1-1.7 -2.4 0.5-4.7 1.1-7.1 1.5C-313.2 517.4-315.1 518-315.1 521.7zM-197 432.7c-1.6-1.7-3.1-2.9-5.3-2.2 -3 0.9-3.7 3.5-4.7 6C-204.3 436.9-199.9 435.2-197 432.7zM-342.3 629.3c2.5 3.2 3.4 3.4 5.9 2.2 1.6-0.8 3.3-1.6 5.2-2.6 -0.2-0.7-0.4-1.7-0.7-2.7C-335.5 627.3-338.6 628.2-342.3 629.3zM-149.1 422.3c3.4 1.2 6.2 1 9.6-0.9 0.9-0.5 1.3-1.9 2.3-3.4C-142.2 417.9-145.8 419-149.1 422.3zM-285.3 489.1c0.2 0.4 0.3 0.7 0.5 1.1 2.4 0.3 4.8 0.9 7.2-0.9 0.8-0.6 2.3-0.2 3.5-0.3 1.4-0.1 2.4-0.5 2.2-2.3 -3.8 0.1-7.4 0.1-11.1 0.4C-283.8 487.3-284.5 488.5-285.3 489.1zM-315.6 614.1c3.1-1.5 5.7-2.8 8.5-4.1C-311.2 605.7-312.6 606.3-315.6 614.1zM-199.7 427.2c-1.8-1.4-2.9-2.2-3.9-2.9 -4.7 2.6-4.7 2.6-2.7 5.8C-204.4 429.3-202.4 428.4-199.7 427.2zM-37 319.5c-5.7-1.7-5.7-1.7-8.5 4.3C-41.1 325.1-40.8 319.9-37 319.5zM-103.5 519.5c-2.8-1.3-4.4 0.5-6 1.5 -2.3 1.5-2.2 2 0.5 4.4C-107.4 523.6-105.7 521.8-103.5 519.5zM-291.6 501.3c-3.9-2.2-4.5-1.9-5 2.6C-294.6 502.9-293.1 502.1-291.6 501.3zM-292.9 602.9c-1.9 0.8-4.5 0.1-5.3 2.9C-295.2 607-293.8 605.5-292.9 602.9zM-260.8 614.9c0.1 0.4 0.2 0.7 0.2 1.1 3.6 1 3.6 1 4.9-3.1C-257.8 613.7-259.3 614.3-260.8 614.9zM34.1 265.8c4-1.3 4-1.3 2.1-4.1C35.5 263.2 34.8 264.5 34.1 265.8zM-182.5 414.4c-0.3-0.4-0.7-0.8-1-1.2 -1.3 1.2-3.3 1.6-3.7 5.1C-185.1 416.6-183.8 415.5-182.5 414.4zM-155 402.8c0.7-2.2 0.3-3.2-1.3-3.4 -0.4 0-0.9 0.7-1.3 1C-156.9 401.1-156.1 401.8-155 402.8zM-95.8 355.1c2.2 1.2 2.2 1.2 3.6-0.8C-93.8 354.6-94.8 354.9-95.8 355.1zM-214.2 443.7c-0.2-0.4-0.4-0.9-0.6-1.3 -1 1-3.5-0.5-3.6 3.3C-216.7 444.8-215.4 444.2-214.2 443.7zM182.3 347.3c-0.1-0.2-0.2-0.4-0.2-0.5 -1.2 0.4-2.4 0.9-3.6 1.3 0.1 0.3 0.2 0.5 0.3 0.8C180 348.3 181.2 347.8 182.3 347.3zM30.8 267.7c0 0.7-0.2 1.3 0.1 1.5 0.4 0.3 1 0.4 1.5 0.6 0.1-0.5 0.5-1.3 0.3-1.5C32.3 267.9 31.6 267.9 30.8 267.7zM-282.6 502.5c1.1-0.4 1.7-0.4 1.9-0.7 0.2-0.3 0.2-0.9 0.2-1.3 -0.2-0.1-0.4-0.1-0.6-0.2C-281.5 500.9-281.8 501.4-282.6 502.5zM-298.3 515.7c1 0.1 1.8 0.4 2 0.2 0.3-0.4 0.4-1.1 0.3-1.6 0-0.2-0.9-0.5-1.1-0.4C-297.6 514.2-297.8 514.8-298.3 515.7zM-237.4 436.9c-0.2 0.3-0.3 0.5-0.5 0.8 0.8 0.6 1.7 1.1 2.5 1.7 0.2-0.3 0.4-0.6 0.6-0.9C-235.8 437.9-236.6 437.4-237.4 436.9zM-375.8 636.1c0.5-0.1 1.1 0 1.3-0.2 0.2-0.3 0.2-0.8 0.3-1.3 -0.5 0-1.1 0-1.6 0C-375.8 635-375.8 635.5-375.8 636.1zM-284.1 603.3c-0.1-0.2-0.1-0.4-0.2-0.7 -0.6 0.2-1.2 0.4-1.8 0.6 0.1 0.2 0.1 0.4 0.2 0.7C-285.3 603.6-284.7 603.4-284.1 603.3zM-300.4 515.4c-0.1 0.3-0.4 0.7-0.3 0.7 0.3 0.2 0.6 0.4 1 0.5 0.1-0.4 0.2-0.8 0.1-1.1C-299.6 515.5-300.1 515.4-300.4 515.4zM-288.2 508.5c-0.5 0.1-1 0.1-1.3 0.3 -0.2 0.1 0 0.7 0 1 0.4-0.1 0.9-0.2 1.2-0.4C-288 509.5-288.1 509-288.2 508.5zM-136.8 418c0.2-0.1 0.5-0.3 0.7-0.4 -0.3-0.6-0.7-1.3-1-1.9 -0.2 0.1-0.5 0.3-0.7 0.4C-137.4 416.8-137.1 417.4-136.8 418z"/><path class="st1" d="M159.7 722.5l-0.1-0.9c-7.5 7.6 1.8 21.6 10.8 16 2.5-1.6 6.1-1.3 9.2-1.9 -0.1 4 30 0.1 43-15.5l-0.2-0.4c2.6 20.9 33.7 14.7 53.3-2 3.6 3.7-0.5 9.7-4.5 13.1 -14 12.2 27.5 2.2 40.5-42.2 25-77.2 36-149-17.9-219.9C248.7 409 201.5 344 130.4 323.2c-128-37.5-259.7-8.3-370.7 61.7 -41 25.8-76.1 59.1-110.5 92.9 -26.1 25.7-65.8 48.6-103 56.3 -31.2 6.4-51 22.3-63.7 61.4 -6.9 21.3-2.2 45.1 8.5 64.7 4.3 7.8 11.2 15.9 20.1 15.1 4.5-0.4 8.4-3.2 12.4-5.1 8.5-4 19.9 0.4 27.6-5.1 242.2-171.9 422.4-214.6 432 38.9 1 26.3 73.4 32.7 98 15.6 1.6-1.1 3.2-2.4 5.2-2.4 3.3 0 5.3 3.4 7.9 5.4 4.4 3.3 10.8 2.3 15.3-0.9 13.6-9.8 11.9-19.3 30.6-16.9 -0.6 3.7-0.2 8.2-2.2 10.9 -4.8 6.6-0.5 12.1 7.6 9.4C150.1 723.7 155 723.4 159.7 722.5z"/><path class="st2" d="M1775.6 206c-20.2-29-46.3-53.4-77.8-69.4 -49.2-25-107.2-28-161.5-18.9 -66.5 11.2-127.6 45.9-195 52.5 -87.9 8.6-119.4-36-185.2-81.4 -30.4-21-70.8-26.7-105.8-15.1 -73.7 24.5-125.8 133.4-91.9 205 46.8 99.1 162.6 22.6 214.1 90.2 8.2 10.7 11.2 24.4 13.6 37.7 28.4 152.9 146 210.8 300.8 238 95.4 16.8 201.4-1.6 271.7-68.3 69-65.5 78-184 59.1-272.4C1810.2 269.2 1796 235.2 1775.6 206z"/><path class="st3" d="M678.3 1529.2c-2.8-0.6-5.6-1.2-8.6-1.9 -5.7 3.8-5.7 3.8-10.6 1.3 0.3-1.1 0.5-2.2 0.9-3.3 1.8-5.4 3.8-10.8 5.3-16.3 0.7-2.5 0.3-5.2-2.7-7.5 -2.6-2-3.7-4.3-4.3-7.3 -0.7-3.5-3.9-6.9-6.4-10.9 -1.3 1.1-2.6 1.7-2.6 2.4 -0.7 7.9-4.3 15.2-2.1 23.6 1.6 6 2.6 12.3-0.9 18 -1.4 2.2 0.2 5.8 0.4 8.9 -0.6 0.1-1.7 0.4-2.3 0.6 1.8 2.7 3.5 5.2 5.4 8.1 -2.9 0.1-4.6 0.2-6.9 0.3 0.8 7.2-5.9 11.9-7.1 18.4 -0.5 2.6-1 2.5 4.4 4.8 1.8-2.5 3.6-5.1 6.3-8.7 1.2 6.2-5.6 10.6 0.8 15.5 -1.7 1.7-3.3 3-4.6 4.5 -1.9 2.2-3 4.9-5.4 6.6 -3.7 2.5-5.5 5.2-3.5 9.6 -2.6 0.2-4.8 0.4-6.4 0.5 -3.4-2.3 2.1-4.5-2.1-6.3 -4-1.7 0.8-3.6-1.3-5.3 -0.9-0.7-1.9-1.5-2.9-2.2 0.4-5.2 1.1-10.3 1.1-15.5 0-2.5-1.3-5.1-5.1-6 -3.8-0.9-5.5 0.8-6.7 3.6 1.6 1.3 3 2.7 4.7 3.6 2.7 1.5 3.3 3.6 1.6 4.7 -3.5 2.4-1.1 5.8-3.1 9.3 3.4 0 5.6 0.1 7.8 0.1 -1.7 1.8-0.3 5.7-6.1 5.1 -0.2-0.8-0.4-1.7-0.7-2.6 -0.8-2-2.8-3.2-4.7-1.9 -2.8 1.9-6.4 1.8-9.6 2.5 -3.2 0.7-5.7 2.8-8.5 4.3 -2.5 1.4-4.8 3.1-7.5 4.2 -5 1.9-11 2.6-13.4 7.3 -0.4 0.9-3 1-4.7 1.2 -2.9 0.5-5.8 0.8-10.4 1.5 2.9 1.5 4.3 2.2 6.3 3.2 -1.3 1.7-2.7 3.5-4.3 5.5 1.5 1.5 3.1 3.1 5.9 6 -7.7-2.9-9.9 1.4-14.2 2.6 0.2 1.4 0.3 2.7 0.5 4.1 -3.3 0.3-6.3 0.5-10.3 0.8 0.7 2.3 1.4 4.4 2.2 7 -2.5-0.3-4.9-0.6-7.5-0.9 -2.3 4.6-3.1 10.7-13.1 7.9 -1.5 2.6-3 5-4.4 7.4 1.1 0.8 1.9 1.3 2.8 1.9 -0.3 0.2-0.5 0.4-0.8 0.5 -3.7 0.6-7.3 1.2-11.1 1.7 -1.5 0.2-3.2 0.5-4.6 0.1 -9.3-2.5-17.7-0.3-26.4 0.1 -2.6 0.1-5 2.2-7 3.7 -5 3.9-10.4 6.1-18.8 4.5 -4.8-0.9-10.2 0-14.7 1.2 -4.5 1.1-3.8 4.2 0.9 6.2 1.4 0.6 3.2 1.7 4.4 1.5 7.5-1 13.9 1.9 20.5 5 1.6 0.7 4.4 0.4 6.1-0.2 3.9-1.3 4-1.4 5.2 2.6 4.2 1.5 9.4-1.6 14 4.4 -1.1 0-2.1 0.1-3.2 0 -5.4-0.3-11.7-1.9-16.1-0.6 -6.6 2-11.8-1.6-18.4-2.4 0.9 2.3 1.7 4.2 2.7 6.6 -4.2 0.8-8.1 1.3-13-0.9 -5-2.2-10.1-0.6-13.5 3.6 3.6 0.6 7 1.1 10.3 1.7 0.2 0.5 0.4 1 0.6 1.6 -1.9 0.9-3.7 2.4-5.8 2.5 -6.4 0.4-12.3 1.1-18.1 3 -4.3 1.4-10 0.8-15.1 0.9 -4.5 0-8.9-2.2-13.8-1.6 -2.2 0.3-5.5-2.4-9-4.1 -3.6 2-8.2 2.6-13.3-1.1 -1.2-0.8-3.5-0.8-5.3-0.9 -4.3-0.3-8.5 1.2-13-1.5 -0.9-0.5-3.2 0.5-4.8 0.9 -4.2 1-8.3 2.1-13.5 3.5 2-3.4 2.8-6.1 6.8-6.5 -3.4-5.1-6.7-5.5-10.2-1.8 -3 3.1-3.5 3.1-7.1-0.1 -5.1-4.6-5.2-4.7-12.5-2.1 2 2.2 3.9 4.3 5.8 6.4 -6.5 0.7-6.5 0.7-10-4.2 -6.1 1.6-11.8-1-17.5-4.2 -1.8 1.2-3.4 2.3-5.2 3.5 -5.6-2.5-11-2.2-16.7-1.6 -7.2 0.8-14.3-0.2-19.9-5.8 -1.5-1.5-4.2-2.2-7.2-3.7 -0.4 2.6-0.7 4.3-1.1 6.9 -6.7-5.8-12.7-11-18.8-16.2 4.7-1.7 12.5 0.2 15.7 3.7 3.1 3.5 3.1 3.5 9.1 5.2 2.5-2.3 1.1-4.2-2-6.1 -5.7-3.4-11.3-6.8-17-10.2 -0.9-0.5-2-1.1-2.9-1.1 -10.8 0.2-20.4-4.9-30.5-7.5 -5.4-1.4-9.5-3.5-13.1-7.3 -2.5-2.7-6.9-4.3-9.8-6.8 -6.5-5.5-15.7-8.6-20.5-15.5 -1.1-1.6-3.4-2.8-5.2-4.2 -2.6-2-5.8-3.7-7.6-6 -3.2-4.3-8.2-6.3-12.9-8.8 -3.1-1.7-6.2-3.5-10.1-5.7 4.9-2.4 6.8-5.7 3.6-9.4 -2.6-2.9-6.7-5-11.8-8.7 -0.6-3.1-1.3-7.7-2.6-12.3 -0.6-2-2.5-3.9-4.5-6.8 2.1-3.8 1-8.6-3.5-13.8 -4.3-4.9-7.4-10.4-11-15.7 -0.3-0.5-0.6-1.5-0.9-1.5 -4.6-0.2-3.9-2.9-4.6-5 -0.6-2-1.6-3.9-2.8-6.8 4.3 1.7 7.5 3 10.8 4.3 0.3-0.2 0.7-0.4 1-0.6 -1.1-1.3-2.1-2.5-3.2-3.8 -2.1-2.2-4.5-4.3-6.4-6.6 -1-1.2-1.8-3.1-1.3-4.2 1.4-3.3 4.1-5.6-0.9-9.9 -2.7-2.3-2-7.1-2.7-10.7 -1.1-5.8-4.5-11.2-8.3-16.3 -1.9-2.6-2.4-4.8-1.3-7 1.6-3.2 0.1-6.3-2.7-8.5 -3.4-2.9-4.7-5.9-5.5-9.3 -1.1-4.6-5-9.1-3.6-13.9 0.7-2.3 0.6-4.8 1.3-7 1-3.1 0.9-6-1.4-9.3 -1.6-2.3-2.8-5.3-2.7-7.7 0.4-8 1.5-15.9 2.4-23.8 4.4-3 0.5-8 2.7-11.8 -5.1-2.1-5-5.4-4.3-9.5 1.2 1.8 2 2.9 3.3 4.8 1.6-9.1 7.2-16.4 8-24.6 0.8-7.6 3.3-14.6 4.4-22.1 0.1-0.6-0.2-1.5 0.2-1.8 7.7-5.7 4.9-15.5 11-21.9 2.4-2.5 3.6-5.8 5.5-8.9 1.7 1.3 3.1 2.4 5.8 4.6 -1.3-4.8 0.9-6.7 5.3-7.1 -1.2-2.1-2.2-3.9-3.2-5.6 1.7-2.1 3.2-4.2 5-6.2 1.5-1.7 3.4-3.2 5.5-5.2 -0.2-1.8-1.4-4.8-0.4-7.1 0.9-2.2 3.9-3.7 6.4-5.2 2.4-1.5 4.4-2.8 4.4-5.6 0-1.5 0.9-3.4 2.4-4.1 5.4-2.4 7.5-6.9 10.7-10.6 2.2-2.6 3.6-5.7 5.8-8.4 2.2-2.7 4.9-5.1 7.4-7.6 2.2-2.2 4.5-4.4 6.7-6.7 0.6-0.6 0.8-1.5 1.5-2 9.5-6.9 17-15.6 28.6-20.8 2.7-1.2 5.1-2.9 7.4-4.6 2.8-2.1 5.7-3.4 10.1-2.9 1.5 0.2 3-1 4.5-1.5 1.2-0.4 2.4-0.8 4.4-1.4 0.3 2.3 0.5 3.9 0.7 5.4 -3.4 0.6-7.7 0.4-8.3 4.3 6.6 0 6.6 0 8.2-4.5 7.1-0.4 7.1-0.4 14.2-5.8 -3.7 0.4-6.3 0.7-9.4 1 2-6.1 6.8-8.4 13.2-6.9 7.7 1.7 12.1 0.7 15.2-4.1 1.7-2.6 4.1-3.8 7.8-4.5 6.5-1.3 12.7-3.4 18.9-5.3 2.8-0.8 5.3-1.5 8.7-1.1 2.2 0.2 4.4-1.8 6.9-3 10.2-0.5 21.1-1.1 31.9-1.6 4.6-0.2 9.2-0.3 13.8-0.5 1.3 0 3 0.1 3.7-0.4 4-3.1 8.6-1 13.1 0.3 2.6 0.8 4.5 0.7 7.2 0.2 4.7-1 10.2-1.3 15.2-0.3 7.9 1.6 15.5 1.6 23.3 2.1 2.1 0.1 4.5-0.1 6.2 0.7 10.3 4.6 19.9 1.7 30.5 2.4 4.8 2.3 4 7 6.2 11.1 4.5 1.2 9.1 2.3 13.5 3.5 2.6 5.7 2.6 5.7 9.7 5.5 2.6-0.1 2.6-0.1 4.7 2.9 -9.2 3.4-17.4 0.1-25.6-4.7 -6.5-3.8-13.2-7.1-21.3-7.3 -1.4 0-3.5-0.8-4.2-1.7 -2.6-3.1-6.4-3-9.3-2.4 -4.2 0.9-7.6 0-11.4-1.6 -5.2-2.2-10.3-2.8-16-2.9 -5-0.1-10.2-1.6-15.4-1 -6.1 0.6-12.3 0.7-18.3 1.4 -6.8 0.8-10.8 4.1-13 9.6 7.5 2.3 14 5.2 22 3.6 5.6-1.2 12.3-0.2 18.5-0.2 0.7 0 1.7 0.2 2.2 0.6 5.9 4.2 11.1 3 16.8 0.5 3.8 3.9 8.6 2.4 13.9 2.6 -1.1-1.6-1.9-2.8-2.8-4 5-2.5 12-2.5 15.4 0.9 7.9 8.1 18.9 10.1 29.4 11.8 5.9 1 11.8 2.2 17.7 3 3 0.4 5.8 0.2 9 1.8 2.1 1.1 5.5 0.3 8.2-0.2 2.8 0.7 5.6 1.5 8.8 2.3 0.1-2.1 0.1-3.5 0.2-4.8l0 0c2.5 2.7 6 4 8.9 2.3 3.6-2.1 7.9-0.9 10.7 0.2 3.6 1.5 7.1 4.6 9.2 7.5 2.4 3.3 4.8 7 3.4 10.8 -0.2 0.4 0.6 1.1 1.3 2.2 4.9-3 9.4-2.5 14.1 1.5 1.5 1.3 4.5 1.5 8.1 2.7 -2.5-4.8-4.5-7.3-10-8.1 -3.3-0.5-6.5-3-9.9-4.7 0.4-1.5 0.7-2.8 1-4.1 5.4 1.7 10.7 3.2 15.9 4.9 0.7 0.2 1.5 0.7 1.9 1.2 4.7 6 13 5.9 19.6 8.5 1.6 0.6 3.1 1.3 5.4 2.4 -2.3 0.6-4.3 0.6-5 1.3 -5.3 5.8-12.7 3.6-20.2 1.4 -3-0.9-5.9-2-10.1-3.4 2 3.4 4 5.2 7.2 6 4.1 1 6.8 2.9 9.4 5.9 3.5 4 8.1 7.6 12.3 11.3 2.7 2.4 5.6 4.7 8.5 7 1.1 0.9 2.5 2.5 3.5 2.5 5.5-0.1 6 3.3 8.2 6 3.5 4.3 7 9.4 12.1 12.1 9.4 5 15.8 12.1 24.1 17.8 4 2.7 7.8 5.6 11.8 8.3 0.7 0.5 1.8 0.5 4.4 1.2 -5.5-7.3-9.8-13.7-15-19.5 -2.7-3-7.2-5.1-10.8-7.8 -3.4-2.5-6.6-5.1-9.8-7.6 4-4.1 4.2-7.9-0.4-10.1 -5-2.4-8.5-6-13.2-8.6 -7-3.9-13.9-7.8-20.8-11.8 -1-0.6-1.6-1.5-2-2.7 7.8 2.2 15.5 3.7 21.5 9.3 3.8 3.5 9.1 6.6 14.3 8.4 3.1 1.1 4.6 2.4 6.1 4.2 2 2.3 4.4 4.1 7.3 6 4.4 2.7 9.7 4.9 12.1 9.3 0.4 0.7 1.4 1.6 2.4 1.8 6.8 1.8 8.7 6.5 10.7 10.7 1.3 2.8 3.1 4.7 6.2 6.6 5.2 3.2 9.6 7.2 14.2 10.8 8.5 6.8 13.9 15 21.8 21.9 2.3 2 4 4.5 5.8 6.9 7.6 9.9 15.4 19.7 22.6 29.7 3.8 5.4 6.4 11.2 9.5 16.8 2.8 5 6.3 9.6 13.7 11.7 0.4-0.7 0.9-1.6 1.9-3.5 1.2 2.1 1.9 3.4 2.6 4.6 3.7 6.6 7.3 13.3 10.9 19.9 0.8 1.6 1.4 3.2 2 4.8 0.5 1.2 0.5 2.9 1.5 3.5 4.3 2.5 4.9 5.9 6.3 9.3 1.5 3.6 3.6 7 5.3 10.6 2.3 4.9 4.1 9.9 6.5 14.8 3.4 6.9 6.1 14.5 2 21.5 -1.1 1.9 0.2 4.8 0 7.2 -0.1 2.2 0.4 5.1-1.2 6.2 -4.2 2.9-4.9 6.9-6.4 10.8 -1.3 3.3-2.6 6.3-7.7 7.7 -3.3 0.9-8 2.6-7.4 7.1 0.1 0.8-1.3 1.6-2.1 2.3 -6 5-7.3 11.7-7.1 18.6 0.1 4.6-2 8-4.7 11.4 -2.3 2.9-4.9 2.7-8.2 0.1 0-2.2 0-4.4 0-6.6 1.9-0.9 3.8-1.7 5.8-2.6 -5.4-4-10.3-3.2-16 2.4 -2.3-0.4-5.2-1.7-6.7-1.1 -4.4 1.7-11.2 0.7-12.6 5.8L678.3 1529.2zM411.6 1681.6c1.8-1.5 2.9-2.4 4-3.4 -4.2-2.7-7.9-5.1-11.9-7.7 1.6-2 2.7-3.5 3.9-4.9 -5.7-3.3-10.6-2.8-15.8-1.7 -4.8 1-9.8 1.4-15.2 2.1 4.5 1.8 7.9 3.2 11.3 4.6 2.1 0.8 4.4 1.4 6.4 2.3 2.7 1.3 5.2 2.9 7.8 4.4C404.9 1679 409 1677.1 411.6 1681.6zM100.7 1278c-8.5 0.7-9.2 5.5-11.5 9 -1.3 2-1.4 4.1 1.5 6.2C97.9 1290.2 97.4 1284 100.7 1278zM314.8 1636.8c-0.6 3 0.5 4.2 3.1 4.6 2.4 0.4 5 0.9 5.4-1.7 0.3-1.9-2.4-4.6-4.7-4.5C316.9 1635.3 315.5 1636.4 314.8 1636.8zM160 1625.5c-2.4-6.7-3.7-7.2-11-4.9C151.8 1623.9 156 1624.2 160 1625.5zM631.7 1553.6c-2.9-1.6-5.4-2.3-7 0.2 -0.3 0.5 0.6 2.2 1.3 2.4C629.5 1557.6 631.2 1556.4 631.7 1553.6zM492.5 1190.4c-2.8 0-5 0-7.4-0.1 1.7 2.2 3.6 4.5 7.9 4.7C492.8 1193.5 492.7 1191.9 492.5 1190.4zM194 1644.5c2.3 3.1 3.9 5.5 9.1 4.5C201.8 1645.3 199.2 1644.2 194 1644.5zM632.7 1544.2c-0.7 2.8-1.2 4.5-1.6 6.4C636.7 1549.6 636.7 1549.6 632.7 1544.2zM169.9 1616.4c2.7 1.7 4.2 4.9 8.7 4.7C174.2 1616.3 174.2 1616.3 169.9 1616.4zM156.8 1602.4c-0.4 1.8-2.2 3.1 0.1 5 0.4 0.4 2.4 0.4 2.7 0C161.1 1605.5 159.6 1604.1 156.8 1602.4zM642.8 1521.9c2.3-1.9 1.9-3.2-0.6-4.1 -0.6-0.2-1.5 0.5-2.3 0.8C640.8 1519.6 641.7 1520.6 642.8 1521.9zM426.9 1674.8c2.7 1.4 4.5 2.3 7.6 4C432.9 1675.3 431.8 1673.5 426.9 1674.8zM237.1 1166.1c0.5 0.3 1 0.5 1.4 0.8 0.9-0.9 1.7-1.7 2.6-2.6 -0.3-0.2-0.6-0.4-0.9-0.7C239.2 1164.5 238.2 1165.3 237.1 1166.1zM165.4 1610c-0.9 0.6-1.8 1-1.7 1.1 0.4 0.7 1 1.3 1.7 1.8 0.1 0.1 1.6-0.5 1.5-0.7C166.7 1611.5 166 1610.9 165.4 1610zM553.9 1600.4c-0.8 0.4-1.6 0.6-1.6 0.9 -0.1 0.4 0.5 1 0.8 1.5 0.5-0.2 1.3-0.3 1.5-0.6C554.6 1601.8 554.2 1601.2 553.9 1600.4zM395.5 1172.9c0.1-0.3 0.3-0.5 0.4-0.8 -1-0.5-1.9-0.9-2.9-1.4 -0.2 0.5-0.4 1-0.5 1.4C393.5 1172.4 394.5 1172.6 395.5 1172.9zM154.1 1195.5c0.6 0.6 1 1.3 1.5 1.4 0.6 0.2 1.4 0 2.1-0.1 -0.4-0.6-0.7-1.3-1.4-1.8C156 1194.9 155.1 1195.3 154.1 1195.5z"/><path class="st4" d="M31.5 709.2c7.1-40.9 63.6-11.5 100.7 20.2 17.4 14.9 19.5 43.6 3.6 58.7 -7.5 7.1-16.4 11.1-30.8 8.2C25.7 780.6 39.3 782.6 32 733 30.5 723.2 30.5 715.4 31.5 709.2z"/><path class="st5" d="M1425.5 789.6c-1.7-0.1-3.3-1-4.5-2.3 -2.7-2.8-6-10.7-3.3-14.5 1.2-1.7 6.4-1.8 8.2-1 2.3 0.9 4 3 5.2 5.1 0.8 1.5 1.4 3.4 0.5 4.9 -0.5 0.8-1.3 1.3-1.6 2.1 -0.3 0.8-0.1 1.6-0.2 2.5 -0.3 1.8-2.1 3.1-3.9 3.1C1425.7 789.6 1425.6 789.6 1425.5 789.6z"/><path class="st5" d="M1468.1 755.2c-0.3-2.3 0.2-4-0.3-5.6 -0.2-0.6 0.2-0.9 0.8-1 4.1-0.3 7.7 1 10.9 3.6 1 0.8 1.6 2.2 1.4 3.5 -0.6 3.2-1.1 6.4-2.3 9.4 -0.9 2.2-3.6 2.8-5.6 1.6 -3-1.9-4.7-4.7-4.8-8.3C1468.1 757.1 1468.1 755.8 1468.1 755.2z"/><path class="st5" d="M1550.3 783.5c-0.2-2.1-0.2-3.9-0.1-4.8 0.1-0.9 0.2-1.8 0.7-2.5 0.7-1 2-1.4 3.2-1.4 3.5 0.1 5.1 2.7 6.7 5.5 0.3 0.6 0.6 1.4 0.4 2 -0.8 3.4-0.9 7.1-3.2 9.9C1552.7 798.4 1550.9 789.7 1550.3 783.5z"/><path class="st5" d="M1610.1 725.7c0-2.9 1.2-5.9 2.7-8.8 0.4-0.8 0.8-0.6 1.3-0.2 2.8 2.1 4.6 5.1 5.8 8.3 0.3 0.9 0.1 1.8-0.2 2.7 -1 2.7-1 5.6-1 8.4 0 1.3 0.2 2.6-1 3.3 -1.2 0.7-2.5 0-3.5-0.5 -1.4-0.7-2.3-1.9-2.7-3.5C1610.8 732.3 1610 729.3 1610.1 725.7z"/><path class="st5" d="M1563.8 809.9c0-1.5 0-3 0-4.4 0-1.2 0.5-1.6 1.7-1.4 3.5 0.6 6.6 2.4 9.5 4.3 1.1 0.7 1.6 2 1.2 3.5 -0.3 1.4-0.6 2.8-0.9 4.2 -0.7 3.4-2.1 4.3-5.4 3.7 -5-0.9-6-2.1-6.2-7.2 0-0.9 0-1.7 0-2.6C1563.7 809.9 1563.7 809.9 1563.8 809.9z"/><path class="st5" d="M1473.3 793.9c-0.2-1.6-0.3-4.7-0.1-6.2 0.2-1.3-0.2-1.8 1.5-2 2.1-0.3 5.4 2.4 6.7 3.8 2.3 2.4 3.6 4.9 2.2 8.3 -0.6 1.6-0.8 3.3-1.2 5 -0.3 1.3-0.8 2.2-2.3 2.4 -1.6 0.2-3.1-0.5-3.6-1.7 -0.7-1.9-2-3.4-2.7-5.3C1473.3 796.9 1473.3 795.4 1473.3 793.9z"/><path class="st5" d="M1490.6 706.4c-0.1-1.6 0.5-3.1-0.2-4.7 -0.3-0.6 0.1-1 0.8-1.1 4.4-0.6 7.9 1.2 10.7 4.5 0.9 1 1 2.3 0.7 3.5 -0.4 1.8-1 3.7-1.6 5.5 -1.3 3.3-3.9 3.6-6.8 1.5C1491 713.3 1490 710.1 1490.6 706.4z"/><path class="st5" d="M1455.9 687.5c0-0.2 0-0.5 0-0.7 -0.1-3.3 0.3-3.6 3.5-2.5 3 1.1 5.3 3 7.2 5.6 0.6 0.8 0.9 1.7 0.7 2.6 -0.5 2.6-0.6 5.2-1.1 7.8 -0.4 2.3-1.7 2.8-3.8 1.8 -0.4-0.2-0.9-0.3-1.1-0.7 -2-3.2-5.1-5.9-5.2-10.1C1456 690 1455.9 688.8 1455.9 687.5 1455.8 687.5 1455.8 687.5 1455.9 687.5z"/><path class="st5" d="M1553 744.7c0.6 2.7 1.3 9.1-1.1 9.8 -1.3 0.4-2.7 0.2-3.7-1 -1.6-1.8-2.4-4.2-3.2-6.4 -1.6-4.2-2.1-8.6-1.4-13.1 0.2-1.3 0.7-1.4 1.7-0.8 3.8 2.5 6.3 6.4 7.5 10.7C1552.9 744.1 1553 744.3 1553 744.7z"/><path class="st5" d="M1511.3 767.5c-0.1 1.8-0.3 3.7-0.5 5.5 -0.1 1.2-0.2 2.5-1.5 3 -1.4 0.5-2.9 0.3-4-0.7 -3.5-3.1-5.9-6.8-6.1-11.7 0-0.6-0.1-1.1-0.1-1.7 -0.2-3.2-0.1-3.4 2.9-2.8 3.3 0.6 5.9 2.6 8.2 5C1511.1 765 1511.4 766.2 1511.3 767.5z"/><path class="st5" d="M1435.9 685c-0.3 0-0.6 0-0.9-0.1 -2.6-0.4-4.8-2.4-5.7-4.9 -0.6-1.8-0.7-7.6 1.1-8.8 4.7-3.1 13.8 5.4 11.2 10.4C1440.6 683.7 1438.2 685 1435.9 685z"/><path class="st5" d="M1500.8 797.9c0.2-1.7 0.5-3.9 0.8-6 0.1-0.7 0.5-0.9 1.2-0.7 4 1 6.6 3.9 8.9 7 0.8 1.2 0.7 2.7 0.1 4.1 -0.5 1.3-1 2.5-1.4 3.8 -1 3.2-2.8 4-5.8 2.5 -1.8-0.8-2.6-2.3-3.1-4.1 -0.2-0.8-0.4-1.7-0.4-2.5C1500.9 800.8 1500.9 799.6 1500.8 797.9z"/><path class="st5" d="M1541.2 702.5c0.1-0.7 0.1-1.5 0.2-2.2 0.3-2.8 0.3-2.8 2.6-1.3 2.4 1.6 4.4 3.8 6.3 6 1.1 1.3 1.7 2.8 1.4 4.6 -0.3 2-0.3 4.1-0.2 6.2 0.1 1.9-1.6 3.1-3.4 2.5 -1.1-0.4-2.3-1-2.8-2C1543.2 711.8 1540.9 707.5 1541.2 702.5z"/><path class="st5" d="M1442.6 739.3c0-0.2-0.1-0.4-0.1-0.6 -0.2-1-1.5-6.7 0.7-6.4 4.3 0.5 11.8 5 11.4 10 -0.2 3.2-2.8 6.3-5.9 5.4C1444.9 746.6 1443.4 742.9 1442.6 739.3z"/><path class="st5" d="M1520.4 674.6c0-0.7 0-1.4 0-2 0-3.1 0-3.2 2.7-1.6 2.7 1.6 5 3.6 6.9 6 0.3 0.4 0.5 0.9 0.6 1.3 0.7 2.8-0.2 5.4-1 7.9 -0.7 2.1-3.2 2.4-4.8 0.4 -2.3-2.8-4.5-5.7-4.4-9.6C1520.4 676.2 1520.4 675.4 1520.4 674.6 1520.4 674.6 1520.4 674.6 1520.4 674.6z"/><path class="st5" d="M1513.7 703.6c5.9 0.2 9.9 5.4 8.8 11 -0.1 0.5 0 1.1-0.1 1.7 -0.4 3-2.5 4.2-5 2.6 -2.7-1.7-4.7-4-4.9-7.4 -0.1-2-0.1-4.1-0.3-6.1C1512.1 703.9 1512 702.9 1513.7 703.6z"/><path class="st5" d="M1496.2 732.6c0.1 0 0.1 0 0.2 0 3-0.7 7.3 2.4 9.2 4.4 0.9 1 1.4 2.6 1 4.2 -0.4 1.5-0.9 3.1-1.5 4.5 -0.4 1.1-1.5 1.7-2.5 1.5 -1.9-0.4-3.6-1.3-4.4-3.3 -0.3-0.7-0.6-1.3-1.1-1.9C1494.9 739.8 1491.6 733.8 1496.2 732.6z"/><path class="st5" d="M1506.5 655.9c-0.1 0.8-0.1 1.6-0.2 2.4 -0.3 2.2-1.9 3-3.8 1.8 -3.9-2.5-7.5-9.1-7.3-13.7 0.2-5.2 5.5-1.9 7.8 0.1C1505.5 648.9 1506.8 652.4 1506.5 655.9z"/><path class="st5" d="M1458.5 786.1c-0.3 1.2-0.2 2.5-0.2 3.8 -0.1 2.1-1.4 3.3-3.5 3 -2.3-0.2-4-1.3-4.7-3.7 -0.1-0.2-0.1-0.4-0.2-0.5 -2.9-2.8-1.7-6.6-2.6-9.9 -0.1-0.5 0.2-0.7 0.8-0.7 2.6 0.2 5.1 0.7 7.1 2.5 1.5 1.4 3.4 2.4 3.3 4.8C1458.5 785.7 1458.5 785.8 1458.5 786.1z"/><path class="st5" d="M1533.6 768.2c-0.1 2.2-0.8 4.1-1.6 5.9 -0.6 1.6-4 1.7-5.4 0.4 -3-2.8-3.9-6.3-3.7-10.2 0-0.5 0.1-1 0.2-1.5 0.4-3.7-0.1-2.8 3.4-2.4 2.1 0.2 6.6 5 7 7.1C1533.6 767.8 1533.6 768.1 1533.6 768.2z"/><path class="st5" d="M1481 724.7c-0.1 0.8-0.3 1.7-0.4 2.5 -0.2 1.5-0.6 2.8-2.3 3.2 -1.6 0.3-2.9-0.2-4.3-1.3 -4.3-3.6-3.9-8.4-4-13.2 0-0.8 0.4-0.9 1.1-0.8 1.2 0.2 2.3 0.6 3.2 1.3 2.4 1.8 5.1 3.3 6.3 6.2C1480.9 723.3 1481 724 1481 724.7z"/><path class="st5" d="M1607 756.2c0 1.8-0.5 3.4-2 4.2 -1.5 0.8-5.2 0-6.2-1.1 -0.9-1.1-1.6-2.2-1.8-3.6 -0.5-3-0.9-6-1.1-9 -0.1-1.5 0.5-1.5 1.6-1.1 3.2 1.3 5.8 3.4 8.3 5.6C1607.4 752.5 1606.6 754.6 1607 756.2z"/><path class="st5" d="M1644 681.3c-0.1 2.2-1.8 4.5-4 4.8 -2.1 0.3-3.8-0.8-5.1-2.3 -0.9-1-1.9-2.1-1.9-3.7 0-0.2-0.1-0.4-0.2-0.5 -2.2-2.2-1.1-4.8-0.8-7.3 0.1-0.8 0.4-0.9 1.1-0.6 3.9 1.5 7.4 3.5 10.2 6.7C1643.8 679.3 1644.1 680.1 1644 681.3z"/><path class="st5" d="M1554 661.9c-0.1 1.3 0.1 2.7-0.3 4 -0.5 1.4-1.4 1.8-2.7 1.4 -2-0.6-3.1-1.9-4-3.8 -1.9-4.1-3.1-8.3-3.4-12.8 -0.1-1-0.5-1.8 1.2-1.1 3.2 1.4 5.6 3.7 7.9 6.2C1554.2 657.6 1554.2 659.8 1554 661.9z"/><path class="st5" d="M1488.5 687.6c-0.3 1.3-0.4 3.3-2.4 4.5 -1.6 0.9-3.4 0.7-4.6-0.7 -1.5-1.6-2.1-3.5-2.3-5.7 -0.2-2.7 0.5-5.4 0-8.1 -0.1-0.6 0.3-1 0.9-0.9 3.5 0.7 6.5 1.9 7.5 6.2C1487.9 684.3 1488.7 685.5 1488.5 687.6z"/><path class="st5" d="M1426.3 707.2c-0.1-3.1 0.6-6.5 2.9-5.7 3.8 1.2 6.4 4.1 8.9 6.9 1.9 2.2 0 5.9-2.2 6.6 -2.9 0.9-6.8-0.6-8.6-3C1426.7 711.3 1426.3 709.3 1426.3 707.2z"/><path class="st5" d="M1487.2 655.7c-0.3 1.3-0.2 2.5-0.3 3.8 0 1.3-0.7 2.3-1.9 2.9 -3.1 1.5-7.9-4.2-8.9-6.6 -1.3-3.3-1.3-9.1 3.3-7.7 2.9 0.9 6.6 3.5 7.6 6.5C1487.1 654.9 1487.1 655.4 1487.2 655.7z"/><path class="st5" d="M1604.4 795.6c-0.1 3.6-0.6 4.7-2.7 4.8 -2.2 0.1-4-0.8-5.3-2.5 -0.9-1.2-1.6-2.7-1.7-4.2 -0.2-2.6-0.4-5.3-1-7.9 -0.2-0.9 0.1-1.1 1-0.7 3.4 1.4 6.1 3.8 8.7 6.3C1604.7 792.4 1604.3 794.2 1604.4 795.6z"/><path class="st5" d="M1567.4 693.8c-0.3 2.2-0.5 4.2-0.9 6.1 -0.2 1-0.9 2-2 2.2 -1.2 0.2-2.1-0.4-2.7-1.5 -1.5-2.3-2-5-2.6-7.6 -0.7-2.7-0.6-5.5-0.2-8.3 0.2-1.1 0.5-1.6 1.6-0.6 2.8 2.4 5.2 5.1 6.5 8.5C1567.2 693.2 1567.4 693.6 1567.4 693.8z"/><path class="st5" d="M1596.8 657.4c0-0.6 0-1.1 0-1.7 0.2-3.3 0.5-3.5 3.2-1.8 2.7 1.7 4.8 4 6.9 6.4 1.4 1.6 0.2 3.6-0.6 5.2 -1.1 2.3-1.8 2.2-4.3 1.6C1597.5 665.9 1596.4 661.8 1596.8 657.4z"/><path class="st5" d="M1607.5 687.8c0-3.8 0.1-3.9 3.2-2.3 1.1 0.6 2 1.5 2.8 2.4 0.8 0.9 1.7 1.8 2.7 2.5 2.2 1.7 3 5.1 1.8 7.6 -0.8 1.6-3.5 2.1-5.2 0.7 -1.8-1.5-3.4-3.2-4-5.6C1608.3 691.3 1607 689.6 1607.5 687.8z"/><path class="st5" d="M1455.9 655.9c0.6-4.8 5.6-1.3 8.9 2.4 1.5 1.7 1.7 5.1 0.3 6.8 -0.7 0.8-1.4 1.3-2.7 1 -7-1.8-5.8-1.6-6.5-7.4C1455.8 657.6 1455.8 656.6 1455.9 655.9z"/><path class="st5" d="M1520.4 735.6c0.2-2.4 1-4.1 3.7-2.5 2.3 1.4 4.2 3.4 5.8 5.6 1.2 1.6 0.8 6.3-0.5 7.7 -0.3 0.3-0.6 0.4-1 0.5 -1.6 0.3-3.9-0.7-4.5-2.3 -1.5-3.3-3.7-4.7-3.6-8.5C1520.4 735.9 1520.4 735.8 1520.4 735.6z"/><path class="st5" d="M1571.6 732.2c0-0.5 0-0.8 0.1-1.1 0.2-3.1 0.5-3.3 2.9-1.4 2.2 1.7 4.4 3.6 5.9 6 1.2 2 0.8 6.1-0.9 7.7 -1 0.9-2.1 0.6-3.1 0.1 -3.1-1.7-3.9-4.8-4.6-7.8C1571.6 734.5 1571.7 733.3 1571.6 732.2z"/><path class="st5" d="M1524.1 646.8c0-1.2-0.2-2.8 0.9-3.4 1.1-0.5 2.2 0.7 3.2 1.4 2.3 1.5 3.4 3.8 4.4 6.2 1.1 2.5 0.2 5-1.1 7.2 -0.9 1.5-3.6 0.9-4.5-1C1525.4 653.9 1524.1 650.5 1524.1 646.8z"/><path class="st5" d="M1571.2 661c1.3-0.4 1.9 0.7 2.6 1.3 4.9 4 7.3 9.1 6.5 15.6 -0.1 0.8-0.2 1.6-1 2 -0.9 0.5-1.3-0.3-1.9-0.7 -2.7-1.9-3.5-4.8-4-7.8C1572.8 667.9 1572.1 664.4 1571.2 661L1571.2 661z"/><path class="st5" d="M1527.8 799.4c0-1.6 0.3-3.2 0.8-4.7 0.4-1.2 0.9-1.4 2-0.5 2.6 2.3 4.2 5.4 5.4 8.5 0.8 2 0.1 4.3-0.9 6.2 -1 1.8-4.3 1.1-5.2-1.1C1528.8 805.1 1527.7 802.4 1527.8 799.4z"/><path class="st5" d="M1508.1 688.4c-0.1 1-0.3 2.1-1.5 2.6 -1.2 0.5-2.4 0.2-3.3-0.6 -1.9-1.6-3.1-3.7-3.8-6 -0.8-2.5-1-5.2-1.4-7.8 -0.2-1.1 0.2-1.7 1.3-1.1C1503.4 677.7 1507.8 683.2 1508.1 688.4z"/><path class="st5" d="M1630 766.4c0 3.1-2.3 4.7-4.9 3.6 -2.1-0.8-4-2.6-5.2-4.5 -0.5-0.7-3.3-7.2-1.9-7.7 0.7-0.2 0.9 0.2 1.5 0.4 3.5 1 6.3 3.2 9.2 5.3C1629.9 764.2 1629.8 765.5 1630 766.4z"/><path class="st5" d="M1593.3 715.8c-0.1 1.2 0.5 2.7-1.1 3.4 -1.2 0.5-3.4-0.3-4.1-1.8 -1.3-2.4-2.8-4.8-2.5-7.8 0.2-1.8-0.5-3.5-0.7-5.3 0-0.4-0.3-0.9 0.2-1.1 0.4-0.2 0.6 0.3 0.9 0.5 2.7 2.1 4.6 4.9 6.4 7.8C1593.2 712.8 1593.5 714.3 1593.3 715.8z"/><path class="st5" d="M1411.7 708.6c0 1.5-1.6 2.7-3.4 2.8 -0.4 0-0.8 0-1.1-0.1 -2-1.1-4.2-2.2-5.7-4.1 -0.9-1.2-2.7-4.1-1.1-5.3 2.3-1.7 8.6 3.2 10.2 4.5C1411.6 707 1411.7 707.8 1411.7 708.6z"/><path class="st5" d="M1572.5 765.5c0-1.4 0.1-2.7 0.5-4 0.3-0.7 0.9-1.2 1.6-0.7 2.5 2 5.4 6.8 4.1 10.4 -0.5 1.3-0.6 3.3-2.7 3.1 -2-0.2-2.4-1.8-2.7-3.5C1573 769.1 1572.5 767.3 1572.5 765.5z"/><path class="st5" d="M1426.9 747c-2.1 0.1-3.3-1.5-4.5-2.7 -1.6-1.7-3.2-3.6-4.1-5.9 -0.2-0.5-0.6-1-0.1-1.5 0.5-0.5 0.9 0 1.4 0.1 3.5 1 6.4 3.3 9.5 5.2 0.9 0.5 1.6 1.6 1.1 2.9C1429.6 746.5 1428.4 747 1426.9 747z"/><path class="st5" d="M1591.1 687.9c0-0.2 0.1-0.8 0.1-1.3 0.4-3.2 0.5-3.3 3.2-1.3 2.1 1.5 3.3 3.8 5 5.6 0.6 0.7 0.6 1.7-0.1 2.6 -0.8 1-1.8 1.4-3.1 1.2C1593.1 694 1591.1 691.5 1591.1 687.9z"/><path class="st5" d="M1584.1 654.9c-1.7-0.3-3.3-1-4.3-2.6 -1-1.6-1.8-3.3-2.7-5 -0.2-0.3-0.6-0.7-0.2-1.2 0.3-0.3 0.7-0.2 1.1-0.1 1.1 0.2 2.1 0.5 3.2 0.7 3 0.6 4.3 2.9 5.6 5.2C1587.7 653.4 1586.3 654.9 1584.1 654.9z"/><path class="st5" d="M1571.2 661c0 0 0.1 0 0.1 0.1C1571.2 661 1571.2 661 1571.2 661 1571.2 661 1571.2 661 1571.2 661z"/><path class="st5" d="M1273.7 609.1c-1.8-0.1-3.6-1.1-4.8-2.4 -2.9-3-6.4-11.6-3.6-15.7 1.3-1.8 6.9-1.9 8.8-1.1 2.5 1 4.3 3.2 5.6 5.6 0.9 1.6 1.5 3.7 0.5 5.3 -0.5 0.8-1.4 1.4-1.8 2.3 -0.3 0.8-0.1 1.8-0.2 2.7 -0.3 1.9-2.2 3.3-4.2 3.4C1273.9 609.1 1273.8 609.1 1273.7 609.1z"/><path class="st5" d="M1319.8 571.8c-0.3-2.5 0.2-4.3-0.3-6.1 -0.2-0.6 0.2-1 0.9-1 4.4-0.3 8.4 1.1 11.8 3.9 1.1 0.9 1.7 2.3 1.5 3.8 -0.6 3.4-1.1 7-2.5 10.2 -1 2.3-3.9 3.1-6.1 1.7 -3.3-2.1-5-5.1-5.2-8.9C1319.8 573.9 1319.8 572.5 1319.8 571.8z"/><path class="st5" d="M1408.8 602.4c-0.2-2.3-0.2-4.2-0.2-5.2 0.1-1 0.2-2 0.8-2.7 0.8-1.1 2.1-1.6 3.5-1.5 3.8 0.1 5.5 2.9 7.2 6 0.3 0.6 0.6 1.5 0.4 2.1 -0.9 3.6-1 7.6-3.5 10.7C1411.4 618.6 1409.3 609.2 1408.8 602.4z"/><path class="st5" d="M1473.4 539.9c0-3.1 1.3-6.4 2.9-9.5 0.5-0.9 0.9-0.6 1.4-0.3 3.1 2.3 4.9 5.5 6.3 9 0.4 1 0.1 2-0.2 2.9 -1.1 2.9-1.1 6-1 9.1 0 1.4 0.2 2.8-1.1 3.6 -1.3 0.7-2.7 0-3.8-0.6 -1.5-0.8-2.5-2-2.9-3.8C1474.2 547 1473.3 543.8 1473.4 539.9z"/><path class="st5" d="M1423.3 631c0-1.6 0-3.2 0-4.8 0-1.3 0.5-1.8 1.8-1.6 3.8 0.7 7.1 2.6 10.2 4.7 1.2 0.8 1.7 2.2 1.3 3.7 -0.3 1.5-0.6 3-0.9 4.5 -0.7 3.6-2.2 4.7-5.9 4 -5.4-1-6.5-2.3-6.8-7.8 0-0.9 0-1.9 0-2.8C1423.2 631 1423.2 631 1423.3 631z"/><path class="st5" d="M1325.4 613.8c-0.2-1.8-0.3-5.1-0.1-6.7 0.2-1.4-0.2-1.9 1.7-2.2 2.2-0.4 5.9 2.6 7.3 4.1 2.5 2.6 3.9 5.3 2.4 9 -0.7 1.7-0.9 3.6-1.3 5.4 -0.3 1.4-0.9 2.4-2.5 2.6 -1.8 0.2-3.3-0.5-3.9-1.9 -0.8-2-2.1-3.7-2.9-5.7C1325.5 617 1325.5 615.4 1325.4 613.8z"/><path class="st5" d="M1344.2 519.1c-0.2-1.7 0.6-3.4-0.2-5 -0.3-0.7 0.1-1.1 0.8-1.2 4.8-0.7 8.5 1.3 11.6 4.8 0.9 1.1 1.1 2.5 0.8 3.8 -0.5 2-1 4-1.8 5.9 -1.4 3.6-4.2 3.9-7.4 1.7C1344.6 526.6 1343.5 523.1 1344.2 519.1z"/><path class="st5" d="M1306.6 498.6c0-0.3 0-0.5 0-0.8 -0.1-3.6 0.3-3.9 3.8-2.7 3.2 1.2 5.8 3.3 7.8 6.1 0.6 0.8 0.9 1.9 0.8 2.8 -0.5 2.8-0.7 5.7-1.2 8.5 -0.4 2.5-1.9 3-4.1 1.9 -0.4-0.2-1-0.4-1.2-0.7 -2.2-3.5-5.5-6.4-5.6-10.9C1306.8 501.4 1306.6 500 1306.6 498.6 1306.5 498.6 1306.6 498.6 1306.6 498.6z"/><path class="st5" d="M1411.7 560.5c0.6 2.9 1.5 9.9-1.2 10.6 -1.4 0.4-2.9 0.2-4-1 -1.8-2-2.6-4.5-3.5-6.9 -1.7-4.5-2.2-9.3-1.5-14.2 0.2-1.4 0.8-1.5 1.8-0.9 4.1 2.7 6.8 7 8.2 11.6C1411.6 559.8 1411.6 560.1 1411.7 560.5z"/><path class="st5" d="M1366.5 585.2c-0.2 2-0.3 4-0.5 6 -0.1 1.3-0.2 2.7-1.6 3.2 -1.5 0.6-3.1 0.3-4.3-0.8 -3.8-3.4-6.4-7.4-6.6-12.7 0-0.6-0.1-1.2-0.1-1.8 -0.2-3.5-0.2-3.7 3.2-3.1 3.6 0.7 6.4 2.8 8.8 5.4C1366.4 582.5 1366.7 583.8 1366.5 585.2z"/><path class="st5" d="M1285 496c-0.3 0-0.7 0-1-0.1 -2.8-0.4-5.2-2.6-6.2-5.3 -0.7-1.9-0.7-8.2 1.1-9.5 5.1-3.4 14.9 5.8 12.2 11.2C1290.1 494.6 1287.5 496 1285 496z"/><path class="st5" d="M1355.2 618.1c0.2-1.9 0.5-4.2 0.8-6.5 0.1-0.8 0.5-1 1.3-0.8 4.3 1.1 7.2 4.2 9.6 7.6 0.9 1.3 0.7 2.9 0.2 4.4 -0.5 1.4-1.1 2.7-1.5 4.1 -1.1 3.5-3 4.3-6.3 2.8 -1.9-0.9-2.8-2.5-3.3-4.5 -0.2-0.9-0.4-1.8-0.5-2.8C1355.4 621.2 1355.3 619.8 1355.2 618.1z"/><path class="st5" d="M1398.9 514.8c0.1-0.8 0.1-1.6 0.2-2.4 0.3-3.1 0.3-3.1 2.8-1.4 2.6 1.8 4.7 4.1 6.8 6.5 1.2 1.4 1.8 3 1.5 5 -0.3 2.2-0.3 4.5-0.3 6.7 0.1 2-1.8 3.3-3.6 2.7 -1.2-0.4-2.5-1.1-3-2.2C1401 524.9 1398.5 520.3 1398.9 514.8z"/><path class="st5" d="M1292.3 554.7c-0.1-0.2-0.1-0.5-0.2-0.7 -0.2-1.1-1.7-7.2 0.8-6.9 4.7 0.5 12.7 5.4 12.4 10.9 -0.2 3.5-3 6.8-6.4 5.8C1294.7 562.6 1293.1 558.5 1292.3 554.7z"/><path class="st5" d="M1376.4 484.7c0-0.7 0-1.5 0-2.2 0-3.4 0.1-3.5 2.9-1.8 2.9 1.7 5.4 3.9 7.5 6.5 0.3 0.4 0.5 0.9 0.6 1.4 0.8 3-0.3 5.8-1.1 8.6 -0.7 2.3-3.4 2.6-5.2 0.5 -2.5-3-4.8-6.2-4.8-10.4C1376.4 486.5 1376.4 485.6 1376.4 484.7 1376.4 484.7 1376.4 484.7 1376.4 484.7z"/><path class="st5" d="M1369.1 516c6.3 0.2 10.7 5.8 9.6 11.9 -0.1 0.6 0 1.2-0.1 1.8 -0.4 3.2-2.7 4.5-5.4 2.8 -2.9-1.8-5.1-4.3-5.3-8 -0.1-2.2-0.1-4.4-0.3-6.6C1367.4 516.4 1367.3 515.3 1369.1 516z"/><path class="st5" d="M1350.2 547.4c0.1 0 0.1 0 0.2-0.1 3.3-0.8 7.9 2.6 9.9 4.8 1 1.1 1.5 2.8 1.1 4.5 -0.5 1.7-1 3.3-1.6 4.9 -0.5 1.2-1.6 1.8-2.7 1.6 -2-0.4-3.9-1.4-4.7-3.6 -0.3-0.8-0.7-1.5-1.2-2C1348.8 555.3 1345.2 548.8 1350.2 547.4z"/><path class="st5" d="M1361.3 464.5c-0.1 0.9-0.1 1.7-0.2 2.6 -0.3 2.4-2.1 3.3-4.2 1.9 -4.3-2.7-8.1-9.8-7.9-14.8 0.2-5.7 6-2.1 8.4 0.1C1360.3 456.9 1361.7 460.7 1361.3 464.5z"/><path class="st5" d="M1309.5 605.2c-0.3 1.3-0.2 2.7-0.2 4.1 -0.1 2.3-1.6 3.5-3.8 3.3 -2.5-0.3-4.4-1.4-5.1-4 -0.1-0.2-0.1-0.4-0.2-0.5 -3.2-3-1.8-7.1-2.8-10.7 -0.2-0.6 0.2-0.8 0.8-0.8 2.8 0.2 5.5 0.7 7.7 2.7 1.6 1.5 3.6 2.6 3.6 5.1C1309.4 604.8 1309.5 605 1309.5 605.2z"/><path class="st5" d="M1390.7 585.9c-0.1 2.4-0.9 4.4-1.7 6.4 -0.7 1.7-4.3 1.9-5.8 0.4 -3.2-3-4.2-6.8-4-11 0-0.5 0.1-1.1 0.2-1.6 0.5-4.1-0.1-3 3.6-2.6 2.3 0.2 7.1 5.4 7.6 7.7C1390.7 585.5 1390.7 585.8 1390.7 585.9z"/><path class="st5" d="M1333.8 538.9c-0.1 0.9-0.3 1.8-0.4 2.7 -0.2 1.6-0.7 3.1-2.5 3.4 -1.8 0.3-3.2-0.2-4.7-1.4 -4.7-3.9-4.3-9.1-4.3-14.3 0-0.8 0.5-1 1.2-0.9 1.3 0.2 2.5 0.7 3.5 1.4 2.6 1.9 5.5 3.5 6.9 6.7C1333.7 537.4 1333.8 538.1 1333.8 538.9z"/><path class="st5" d="M1470.1 572.9c0 2-0.5 3.7-2.1 4.6 -1.7 0.9-5.6 0-6.7-1.2 -0.9-1.1-1.7-2.4-1.9-3.9 -0.5-3.2-1-6.4-1.2-9.7 -0.1-1.6 0.6-1.7 1.8-1.2 3.4 1.4 6.3 3.7 9 6.1C1470.5 569 1469.7 571.2 1470.1 572.9z"/><path class="st5" d="M1510.1 492c-0.1 2.4-2 4.8-4.3 5.2 -2.3 0.3-4.1-0.9-5.6-2.5 -1-1.1-2.1-2.3-2.1-4 0-0.2-0.1-0.4-0.2-0.5 -2.4-2.4-1.2-5.2-0.9-7.9 0.1-0.9 0.4-1 1.2-0.7 4.2 1.7 8 3.8 11 7.3C1509.9 489.7 1510.2 490.6 1510.1 492z"/><path class="st5" d="M1412.7 471c-0.1 1.4 0.2 2.9-0.4 4.3 -0.5 1.5-1.5 1.9-3 1.5 -2.1-0.6-3.3-2-4.3-4.1 -2-4.4-3.3-9-3.7-13.8 -0.1-1.1-0.5-2 1.3-1.1 3.4 1.6 6.1 4 8.6 6.7C1412.9 466.3 1412.9 468.6 1412.7 471z"/><path class="st5" d="M1341.9 498.7c-0.4 1.4-0.5 3.6-2.6 4.8 -1.8 1-3.7 0.8-5-0.7 -1.6-1.8-2.3-3.8-2.4-6.2 -0.2-2.9 0.5-5.8 0-8.8 -0.1-0.7 0.3-1 0.9-0.9 3.8 0.8 7 2 8.2 6.7C1341.3 495.2 1342.1 496.5 1341.9 498.7z"/><path class="st5" d="M1274.6 520c-0.1-3.4 0.7-7 3.1-6.2 4.1 1.3 6.9 4.4 9.6 7.4 2.1 2.3 0 6.4-2.4 7.2 -3.2 1-7.4-0.6-9.3-3.2C1275.1 524.3 1274.7 522.2 1274.6 520z"/><path class="st5" d="M1340.5 464.3c-0.3 1.4-0.3 2.7-0.3 4.1 0 1.4-0.7 2.5-2.1 3.2 -3.3 1.6-8.6-4.5-9.6-7.2 -1.4-3.5-1.4-9.9 3.6-8.3 3.1 0.9 7.1 3.8 8.2 7C1340.4 463.4 1340.4 463.9 1340.5 464.3z"/><path class="st5" d="M1467.2 615.5c-0.1 3.9-0.7 5-2.9 5.1 -2.3 0.1-4.3-0.9-5.7-2.7 -1-1.3-1.7-2.9-1.8-4.6 -0.2-2.9-0.5-5.7-1.1-8.5 -0.2-0.9 0.1-1.2 1.1-0.8 3.7 1.5 6.6 4.1 9.4 6.8C1467.6 612.1 1467.1 614.1 1467.2 615.5z"/><path class="st5" d="M1427.2 505.5c-0.3 2.4-0.5 4.5-1 6.6 -0.2 1.1-1 2.1-2.2 2.3 -1.3 0.2-2.2-0.5-3-1.6 -1.7-2.5-2.1-5.4-2.8-8.2 -0.8-2.9-0.7-6-0.2-8.9 0.2-1.2 0.5-1.7 1.8-0.6 3 2.6 5.6 5.5 7 9.2C1427.1 504.8 1427.2 505.3 1427.2 505.5z"/><path class="st5" d="M1459 466c0-0.6 0-1.2 0-1.8 0.2-3.5 0.5-3.8 3.4-1.9 2.9 1.8 5.2 4.3 7.4 6.9 1.5 1.8 0.2 3.9-0.7 5.6 -1.2 2.5-1.9 2.4-4.6 1.7C1459.8 475.3 1458.6 470.8 1459 466z"/><path class="st5" d="M1470.6 498.9c0-4.2 0.1-4.2 3.4-2.4 1.2 0.6 2.1 1.6 3 2.6 0.9 1 1.8 1.9 2.9 2.7 2.4 1.8 3.3 5.5 2 8.2 -0.8 1.7-3.8 2.3-5.6 0.8 -2-1.6-3.7-3.4-4.3-6.1C1471.5 502.7 1470.1 500.9 1470.6 498.9z"/><path class="st5" d="M1306.6 464.5c0.7-5.2 6.1-1.4 9.6 2.6 1.7 1.9 1.9 5.5 0.3 7.4 -0.7 0.9-1.6 1.4-2.9 1 -7.6-2-6.3-1.7-7-8C1306.5 466.3 1306.5 465.3 1306.6 464.5z"/><path class="st5" d="M1376.4 550.7c0.2-2.6 1.1-4.5 4-2.7 2.5 1.5 4.5 3.7 6.3 6 1.3 1.7 0.9 6.8-0.5 8.3 -0.3 0.3-0.6 0.4-1.1 0.5 -1.7 0.3-4.2-0.8-4.9-2.5 -1.6-3.5-4-5.1-3.9-9.2C1376.4 551 1376.4 550.9 1376.4 550.7z"/><path class="st5" d="M1431.8 547c0-0.5 0.1-0.8 0.1-1.2 0.2-3.3 0.5-3.6 3.2-1.5 2.4 1.9 4.8 3.9 6.4 6.5 1.3 2.2 0.9 6.6-1 8.3 -1 1-2.2 0.7-3.3 0.1 -3.3-1.8-4.2-5.2-5-8.5C1431.8 549.5 1431.9 548.1 1431.8 547z"/><path class="st5" d="M1380.4 454.6c0-1.3-0.2-3.1 0.9-3.6 1.2-0.5 2.4 0.8 3.5 1.5 2.5 1.6 3.7 4.1 4.8 6.7 1.1 2.7 0.2 5.4-1.2 7.8 -0.9 1.6-3.9 1-4.9-1.1C1381.9 462.3 1380.4 458.6 1380.4 454.6z"/><path class="st5" d="M1431.3 470c1.4-0.5 2.1 0.8 2.9 1.4 5.3 4.3 7.9 9.9 7.1 16.8 -0.1 0.9-0.3 1.7-1.1 2.2 -1 0.5-1.4-0.3-2.1-0.8 -2.9-2.1-3.8-5.2-4.4-8.4C1433 477.5 1432.4 473.7 1431.3 470L1431.3 470z"/><path class="st5" d="M1384.4 619.6c0-1.7 0.3-3.5 0.8-5.1 0.4-1.3 1-1.5 2.2-0.5 2.9 2.5 4.5 5.8 5.8 9.2 0.8 2.1 0.1 4.7-1 6.7 -1 2-4.6 1.2-5.6-1.2C1385.4 625.8 1384.3 622.9 1384.4 619.6z"/><path class="st5" d="M1363 499.6c-0.1 1.1-0.3 2.2-1.6 2.8 -1.3 0.6-2.6 0.2-3.5-0.7 -2-1.7-3.4-4.1-4.1-6.5 -0.8-2.7-1.1-5.6-1.5-8.4 -0.2-1.1 0.2-1.8 1.4-1.2C1358.1 488 1362.8 493.9 1363 499.6z"/><path class="st5" d="M1494.9 584c0 3.3-2.5 5-5.3 3.9 -2.3-0.9-4.3-2.9-5.6-4.9 -0.5-0.8-3.5-7.8-2-8.3 0.7-0.2 1 0.2 1.7 0.4 3.8 1.1 6.9 3.4 10 5.7C1494.8 581.6 1494.7 583 1494.9 584z"/><path class="st5" d="M1455.2 529.3c-0.2 1.3 0.6 2.9-1.1 3.7 -1.3 0.6-3.6-0.3-4.5-1.9 -1.4-2.6-3.1-5.2-2.7-8.4 0.2-1.9-0.6-3.8-0.8-5.7 0-0.4-0.4-1 0.2-1.2 0.4-0.2 0.7 0.3 1 0.5 3 2.3 5 5.3 6.9 8.4C1455.1 526 1455.5 527.6 1455.2 529.3z"/><path class="st5" d="M1258.9 521.5c0 1.6-1.7 2.9-3.6 3 -0.4 0-0.8 0-1.2-0.2 -2.2-1.2-4.6-2.4-6.2-4.4 -1-1.3-2.9-4.5-1.1-5.7 2.5-1.8 9.3 3.5 11.1 4.9C1258.7 519.7 1258.8 520.6 1258.9 521.5z"/><path class="st5" d="M1432.8 583c0-1.5 0.1-2.9 0.6-4.3 0.3-0.8 1-1.3 1.7-0.8 2.7 2.2 5.8 7.3 4.4 11.2 -0.5 1.4-0.6 3.6-3 3.3 -2.1-0.2-2.6-2-2.9-3.8C1433.3 586.8 1432.8 585 1432.8 583z"/><path class="st5" d="M1275.3 563c-2.3 0.1-3.6-1.6-4.8-2.9 -1.8-1.9-3.4-3.9-4.4-6.3 -0.2-0.5-0.7-1.1-0.1-1.6 0.5-0.5 1 0 1.5 0.2 3.8 1.1 6.9 3.6 10.3 5.6 1 0.6 1.7 1.7 1.2 3.1C1278.2 562.4 1276.9 563 1275.3 563z"/><path class="st5" d="M1452.9 499c0-0.2 0.1-0.8 0.2-1.4 0.5-3.5 0.5-3.5 3.5-1.5 2.3 1.6 3.6 4.1 5.4 6.1 0.7 0.7 0.7 1.8-0.1 2.8 -0.9 1.1-2 1.5-3.3 1.3C1455 505.7 1452.8 503 1452.9 499z"/><path class="st5" d="M1445.3 463.4c-1.8-0.3-3.6-1-4.7-2.8 -1.1-1.7-2-3.6-2.9-5.5 -0.2-0.4-0.7-0.8-0.2-1.3 0.3-0.3 0.8-0.2 1.2-0.1 1.2 0.2 2.3 0.5 3.5 0.8 3.2 0.6 4.7 3.2 6.1 5.6C1449.2 461.8 1447.6 463.4 1445.3 463.4z"/><path class="st5" d="M1431.3 470c0 0 0.1 0 0.1 0.1C1431.4 470 1431.3 470 1431.3 470 1431.3 470 1431.3 470 1431.3 470z"/><image width="213" height="304" transform="matrix(1 0 0 1 1753 906)"/></svg>