<?xml version="1.0" encoding="UTF-8" standalone="no"?>
<svg width="144px" height="179px" viewBox="0 0 144 179" version="1.1" xmlns="http://www.w3.org/2000/svg" xmlns:xlink="http://www.w3.org/1999/xlink">
    <!-- Generator: Sketch 42 (36781) - http://www.bohemiancoding.com/sketch -->
    <title>Group</title>
    <desc>Created with Sketch.</desc>
    <defs></defs>
    <g id="Page-1" stroke="none" stroke-width="1" fill="none" fill-rule="evenodd">
        <g id="Template-logo's-1" transform="translate(-2277.000000, -1385.000000)" fill-rule="nonzero">
            <g id="Group">
                <g transform="translate(2277.000000, 1385.000000)" id="Shape">
                    <g>
                        <path d="M73.643,145.585 C35.256,145.585 4.026,114.356 4.026,75.969 C4.026,37.582 35.256,6.353 73.643,6.353 C112.028,6.353 143.256,37.582 143.256,75.969 C143.256,114.356 112.027,145.585 73.643,145.585 Z M73.643,8.353 C36.36,8.353 6.026,38.685 6.026,75.969 C6.026,113.253 36.36,143.585 73.643,143.585 C110.924,143.585 141.256,113.253 141.256,75.969 C141.256,38.685 110.924,8.353 73.643,8.353 Z" fill="#E46980"></path>
                        <path d="M69.141,139.209 C31.03,139.209 0.024,108.203 0.024,70.091 C0.024,31.982 31.03,0.977 69.141,0.977 C107.248,0.977 138.25,31.982 138.25,70.091 C138.25,108.203 107.248,139.209 69.141,139.209 Z M69.141,1.977 C31.58,1.977 1.024,32.533 1.024,70.091 C1.024,107.652 31.581,138.209 69.141,138.209 C106.696,138.209 137.25,107.651 137.25,70.091 C137.25,32.532 106.695,1.977 69.141,1.977 Z" fill="#02B2B3"></path>
                        <g transform="translate(40.000000, 23.000000)">
                            <path d="M26.805,50.566 L32.522,53.054 L32.952,53.249 C41.263,57.041 49.11,60.625 49.11,70.603 L49.11,71.103 L51.643,71.103 L51.643,70.603 C51.643,58.994 42.674,54.9 33.995,50.94 L27.835,48.252 C17.448,43.531 8.128,38.227 8.128,25.339 C8.128,12.412 18.894,2.664 33.171,2.664 C43.134,2.664 51.589,7.739 56.372,16.588 L56.61,17.027 L58.839,15.823 L58.601,15.384 C53.361,5.69 44.093,0.13 33.171,0.13 C17.45,0.13 5.595,10.968 5.595,25.339 C5.594,39.725 16.068,45.688 26.805,50.566 Z" fill="#E46980"></path>
                            <path d="M38.797,42.014 L32.508,39.246 C26.313,36.452 18.604,32.975 18.604,25.715 L18.604,25.215 L16.071,25.215 L16.071,25.715 C16.071,34.61 24.967,38.623 31.471,41.557 L37.776,44.332 C49.272,49.377 59.59,55.108 59.59,69.608 C59.59,85.19 47.164,97.395 31.301,97.395 C17.158,97.395 6.143,88.247 3.237,74.088 L3.137,73.598 L0.655,74.108 L0.757,74.598 C3.915,89.985 15.903,99.928 31.302,99.928 C48.585,99.928 62.124,86.61 62.124,69.608 C62.123,53.596 50.6,47.195 38.797,42.014 Z" fill="#02B2B3"></path>
                        </g>
                    </g>
                    <g transform="translate(8.000000, 159.000000)" fill="#E46980">
                        <path d="M10.264,3.626 C9.438,2.314 8.274,1.464 6.549,1.464 C4.584,1.464 3.102,3.042 3.102,4.96 C3.102,6.878 4.924,7.679 6.405,8.384 L9.901,10.204 C11.284,11.079 11.989,12.194 11.989,13.847 C11.989,16.88 9.221,19.163 6.259,19.163 C3.71,19.163 1.72,17.585 0.87,15.229 L1.89,14.768 C2.667,16.711 4.099,18.069 6.308,18.069 C8.712,18.069 10.824,16.176 10.824,13.749 C10.824,11.685 8.713,10.811 7.135,10.034 L3.832,8.286 C2.619,7.534 1.937,6.466 1.937,5.009 C1.937,2.29 3.88,0.37 6.623,0.37 C8.469,0.37 10.217,1.366 11.092,2.944 L10.264,3.626 Z"></path>
                        <polygon points="16.164 18.919 14.998 18.919 14.998 0.614 16.164 0.614"></polygon>
                        <polygon points="21.262 17.827 25.924 17.827 25.924 18.919 20.098 18.919 20.098 0.614 21.262 0.614 21.262 17.827"></polygon>
                        <polygon points="37.893 0.614 39.446 0.614 30.489 9.426 40.007 18.918 38.476 18.918 29.689 10.18 29.203 10.664 29.203 18.918 28.037 18.918 28.037 0.613 29.203 0.613 29.203 9.16"></polygon>
                        <polygon points="43.016 1.708 43.016 8.358 50.397 8.358 50.397 9.452 43.016 9.452 43.016 17.827 50.59 17.827 50.59 18.919 41.85 18.919 41.85 0.614 50.59 0.614 50.59 1.708 43.016 1.708"></polygon>
                        <path d="M53.686,18.919 L53.686,0.614 L57.352,0.614 C58.737,0.614 60.047,0.712 61.139,1.682 C62.256,2.655 62.668,4.012 62.668,5.469 C62.668,7.145 62.014,8.383 60.557,9.209 C62.815,9.668 64.344,11.488 64.344,13.82 C64.344,15.3 63.785,16.636 62.645,17.609 C61.358,18.701 59.999,18.918 58.372,18.918 L53.686,18.918 L53.686,18.919 Z M54.85,8.917 L56.866,8.917 C58.104,8.917 59.1,8.991 60.143,8.237 C61.188,7.485 61.504,6.563 61.504,5.299 C61.504,4.11 61.041,2.944 59.998,2.289 C59.074,1.707 57.934,1.707 56.865,1.707 L54.849,1.707 L54.849,8.917 L54.85,8.917 Z M54.85,17.827 L57.643,17.827 C58.93,17.827 60.264,17.876 61.381,17.122 C62.498,16.37 63.178,15.229 63.178,13.87 C63.178,12.534 62.524,11.2 61.283,10.593 C60.168,10.034 58.638,10.011 57.424,10.011 L54.85,10.011 L54.85,17.827 L54.85,17.827 Z"></path>
                        <polygon points="68.568 17.827 73.228 17.827 73.228 18.919 67.402 18.919 67.402 0.614 68.568 0.614"></polygon>
                        <path d="M93.234,9.767 C93.234,14.915 88.888,19.163 83.742,19.163 C78.596,19.163 74.25,14.915 74.25,9.767 C74.25,4.621 78.57,0.371 83.742,0.371 C88.889,0.37 93.234,4.62 93.234,9.767 Z M75.414,9.767 C75.414,14.283 79.178,18.07 83.742,18.07 C88.281,18.07 92.068,14.259 92.068,9.767 C92.068,5.251 88.281,1.464 83.742,1.464 C79.178,1.464 75.414,5.251 75.414,9.767 Z"></path>
                        <path d="M113.24,10.106 C113.289,12.413 112.949,14.428 111.322,16.2 C109.574,18.095 106.951,19.163 104.377,19.163 C99.305,19.163 94.982,14.89 94.982,9.841 C94.982,4.597 99.279,0.37 104.523,0.37 C107.849,0.37 110.544,2.022 112.462,4.645 L111.515,5.397 C109.888,2.969 107.413,1.463 104.451,1.463 C99.984,1.463 96.148,5.373 96.148,9.766 C96.148,14.282 99.886,18.069 104.451,18.069 C106.418,18.069 108.336,17.268 109.842,16.055 C111.418,14.719 112.002,13.19 112.074,11.2 L105.519,11.2 L105.519,10.106 L113.24,10.106 L113.24,10.106 Z"></path>
                        <path d="M124.553,3.626 C123.729,2.314 122.563,1.464 120.838,1.464 C118.873,1.464 117.391,3.042 117.391,4.96 C117.391,6.878 119.213,7.679 120.694,8.384 L124.19,10.204 C125.573,11.079 126.278,12.194 126.278,13.847 C126.278,16.88 123.51,19.163 120.549,19.163 C117.998,19.163 116.008,17.585 115.158,15.229 L116.178,14.768 C116.955,16.711 118.387,18.069 120.598,18.069 C123,18.069 125.112,16.176 125.112,13.749 C125.112,11.685 123.001,10.811 121.423,10.034 L118.12,8.286 C116.907,7.534 116.227,6.466 116.227,5.009 C116.227,2.29 118.168,0.37 120.913,0.37 C122.759,0.37 124.505,1.366 125.38,2.944 L124.553,3.626 Z"></path>
                    </g>
                </g>
            </g>
        </g>
    </g>
</svg>