<?xml version="1.0" encoding="UTF-8" standalone="no"?>
<svg width="397px" height="81px" viewBox="0 0 397 81" version="1.1" xmlns="http://www.w3.org/2000/svg" xmlns:xlink="http://www.w3.org/1999/xlink">
    <!-- Generator: Sketch 42 (36781) - http://www.bohemiancoding.com/sketch -->
    <title>Group</title>
    <desc>Created with Sketch.</desc>
    <defs></defs>
    <g id="Page-1" stroke="none" stroke-width="1" fill="none" fill-rule="evenodd">
        <g id="Group" fill-rule="nonzero" fill="#000000">
            <g id="Shape">
                <g transform="translate(21.000000, 10.000000)">
                    <path d="M16.643,30.821 L20.068,32.311 L20.325,32.428 C25.303,34.699 30.004,36.846 30.004,42.823 L30.004,43.122 L31.521,43.122 L31.521,42.823 C31.521,35.87 26.15,33.419 20.951,31.046 L17.262,29.437 C11.041,26.609 5.458,23.433 5.458,15.712 C5.458,7.97 11.906,2.132 20.458,2.132 C26.425,2.132 31.489,5.171 34.354,10.472 L34.497,10.736 L35.832,10.013 L35.689,9.751 C32.55,3.944 27,0.614 20.458,0.614 C11.042,0.614 3.94,7.104 3.94,15.712 C3.938,24.327 10.213,27.899 16.643,30.821 Z"></path>
                    <path d="M23.826,25.698 L20.058,24.042 C16.348,22.368 11.73,20.284 11.73,15.937 L11.73,15.638 L10.212,15.638 L10.212,15.937 C10.212,21.265 15.542,23.669 19.437,25.427 L23.214,27.087 C30.099,30.11 36.278,33.542 36.278,42.228 C36.278,51.56 28.837,58.871 19.335,58.871 C10.864,58.871 4.267,53.392 2.526,44.912 L2.466,44.619 L0.979,44.924 L1.04,45.217 C2.932,54.434 10.112,60.389 19.335,60.389 C29.687,60.389 37.796,52.412 37.796,42.229 C37.797,32.636 30.895,28.804 23.826,25.698 Z"></path>
                </g>
                <path d="M40.39,80.399 C18.389,80.399 0.491,62.501 0.491,40.501 C0.491,18.501 18.389,0.603 40.39,0.603 C62.39,0.603 80.287,18.501 80.287,40.501 C80.287,62.501 62.39,80.399 40.39,80.399 Z M40.39,1.325 C18.787,1.325 1.213,18.899 1.213,40.501 C1.213,62.103 18.787,79.677 40.39,79.677 C61.992,79.677 79.566,62.103 79.566,40.501 C79.566,18.899 61.991,1.325 40.39,1.325 Z"></path>
                <path d="M40.39,77.853 C19.793,77.853 3.037,61.097 3.037,40.501 C3.037,19.905 19.793,3.149 40.39,3.149 C60.987,3.149 77.742,19.905 77.742,40.501 C77.742,61.097 60.986,77.853 40.39,77.853 Z M40.39,3.825 C20.166,3.825 3.713,20.278 3.713,40.501 C3.713,60.724 20.166,77.177 40.39,77.177 C60.613,77.177 77.066,60.724 77.066,40.501 C77.066,20.278 60.612,3.825 40.39,3.825 Z"></path>
            </g>
            <g transform="translate(104.000000, 19.000000)" id="Shape">
                <path d="M21.195,7.692 C19.392,4.809 16.847,2.94 13.066,2.93 C8.759,2.916 5.503,6.368 5.49,10.571 C5.478,14.774 9.465,16.54 12.705,18.094 L20.357,22.106 C23.384,24.034 24.919,26.481 24.91,30.102 C24.891,36.748 18.811,41.735 12.32,41.715 C6.734,41.701 2.381,38.229 0.533,33.065 L2.77,32.057 C4.462,36.323 7.591,39.307 12.434,39.321 C17.701,39.335 22.34,35.2 22.355,29.88 C22.367,25.357 17.745,23.429 14.293,21.718 L7.066,17.864 C4.411,16.212 2.925,13.864 2.935,10.673 C2.951,4.712 7.22,0.517 13.232,0.532 C17.277,0.544 21.102,2.737 23.007,6.202 L21.195,7.692 Z"></path>
                <polygon points="34.033 41.243 31.476 41.235 31.589 1.12 34.144 1.13"></polygon>
                <polygon points="45.211 38.882 55.426 38.911 55.42 41.304 42.65 41.269 42.763 1.152 45.316 1.16"></polygon>
                <polygon points="81.762 1.261 85.167 1.271 65.48 20.529 86.28 41.39 82.926 41.382 63.72 22.175 62.654 23.234 62.604 41.324 60.048 41.316 60.16 1.203 62.716 1.209 62.663 19.939"></polygon>
                <polygon points="92.983 3.69 92.942 18.264 109.117 18.309 109.11 20.707 92.937 20.66 92.884 39.015 109.484 39.06 109.477 41.453 90.323 41.398 90.435 1.283 109.59 1.338 109.582 3.734"></polygon>
                <path d="M133.793,41.522 L133.908,1.407 L141.943,1.43 C144.973,1.438 147.845,1.66 150.234,3.795 C152.673,5.932 153.568,8.91 153.559,12.104 C153.55,15.776 152.108,18.485 148.912,20.286 C153.854,21.307 157.195,25.306 157.181,30.417 C157.172,33.661 155.942,36.585 153.436,38.71 C150.607,41.095 147.626,41.56 144.062,41.552 L133.793,41.522 Z M136.408,19.612 L140.825,19.624 C143.539,19.63 145.718,19.8 148.013,18.153 C150.303,16.512 151.003,14.493 151.011,11.723 C151.018,9.118 150.011,6.559 147.731,5.118 C145.71,3.839 143.21,3.831 140.87,3.825 L136.452,3.813 L136.408,19.612 Z M136.353,39.138 L142.474,39.156 C145.292,39.162 148.218,39.277 150.67,37.633 C153.123,35.992 154.621,33.498 154.628,30.518 C154.637,27.59 153.209,24.663 150.494,23.325 C148.055,22.095 144.703,22.034 142.041,22.024 L136.399,22.01 L136.353,39.138 Z"></path>
                <polygon points="166.416 39.222 176.631 39.249 176.622 41.644 163.854 41.609 163.965 1.494 166.521 1.5"></polygon>
                <path d="M220.523,21.708 C220.491,32.993 210.94,42.276 199.661,42.245 C188.383,42.212 178.885,32.876 178.916,21.593 C178.946,10.314 188.442,1.027 199.776,1.06 C211.056,1.091 220.556,10.431 220.523,21.708 Z M181.47,21.599 C181.443,31.495 189.665,39.82 199.668,39.847 C209.618,39.874 217.939,31.548 217.968,21.702 C217.997,11.806 209.718,3.483 199.771,3.456 C189.767,3.427 181.497,11.702 181.47,21.599 Z"></path>
                <path d="M264.363,22.577 C264.455,27.632 263.698,32.048 260.124,35.919 C256.279,40.06 250.527,42.384 244.886,42.37 C233.767,42.339 224.324,32.946 224.353,21.882 C224.387,10.39 233.83,1.152 245.323,1.185 C252.612,1.206 258.51,4.843 262.698,10.605 L260.617,12.246 C257.064,6.918 251.649,3.601 245.156,3.582 C235.367,3.555 226.939,12.1 226.911,21.727 C226.884,31.623 235.053,39.946 245.054,39.975 C249.365,39.987 253.573,38.243 256.881,35.596 C260.343,32.676 261.632,29.33 261.804,24.967 L247.438,24.926 L247.447,22.53 L264.363,22.577 Z"></path>
                <path d="M289.196,8.444 C287.395,5.561 284.847,3.692 281.067,3.682 C276.761,3.67 273.503,7.118 273.491,11.323 C273.478,15.524 277.468,17.294 280.708,18.848 L288.357,22.858 C291.383,24.784 292.921,27.231 292.911,30.854 C292.894,37.5 286.811,42.487 280.322,42.467 C274.735,42.451 270.384,38.983 268.535,33.815 L270.772,32.811 C272.463,37.075 275.593,40.057 280.437,40.073 C285.703,40.089 290.342,35.952 290.355,30.632 C290.369,26.109 285.746,24.183 282.293,22.468 L275.066,18.618 C272.413,16.962 270.929,14.614 270.94,11.423 C270.954,5.464 275.223,1.271 281.234,1.286 C285.279,1.298 289.101,3.491 291.01,6.954 L289.196,8.444 Z"></path>
            </g>
        </g>
    </g>
</svg>