<?xml version="1.0" encoding="UTF-8" standalone="no"?>
<svg width="396px" height="81px" viewBox="0 0 396 81" version="1.1" xmlns="http://www.w3.org/2000/svg" xmlns:xlink="http://www.w3.org/1999/xlink">
    <!-- Generator: Sketch 42 (36781) - http://www.bohemiancoding.com/sketch -->
    <title>Group</title>
    <desc>Created with Sketch.</desc>
    <defs></defs>
    <g id="Page-1" stroke="none" stroke-width="1" fill="none" fill-rule="evenodd">
        <g id="Group" fill-rule="nonzero">
            <g id="Shape">
                <g transform="translate(21.000000, 10.000000)">
                    <path d="M16.26,30.891 L19.684,32.38 L19.943,32.498 C24.919,34.769 29.621,36.916 29.621,42.894 L29.621,43.194 L31.138,43.194 L31.138,42.894 C31.138,35.941 25.767,33.488 20.568,31.116 L16.879,29.507 C10.658,26.679 5.075,23.502 5.075,15.782 C5.075,8.04 11.523,2.201 20.075,2.201 C26.041,2.201 31.106,5.241 33.971,10.541 L34.114,10.805 L35.449,10.083 L35.306,9.82 C32.167,4.013 26.617,0.683 20.075,0.683 C10.658,0.683 3.557,7.174 3.557,15.782 C3.556,24.396 9.83,27.969 16.26,30.891 Z" fill="#E46980"></path>
                    <path d="M23.442,25.768 L19.675,24.111 C15.964,22.437 11.347,20.354 11.347,16.007 L11.347,15.707 L9.83,15.707 L9.83,16.007 C9.83,21.334 15.158,23.738 19.054,25.495 L22.831,27.157 C29.716,30.178 35.895,33.612 35.895,42.298 C35.895,51.631 28.454,58.942 18.953,58.942 C10.481,58.942 3.884,53.463 2.143,44.982 L2.082,44.688 L0.597,44.994 L0.657,45.288 C2.549,54.504 9.73,60.459 18.953,60.459 C29.305,60.459 37.413,52.482 37.413,42.299 C37.414,32.705 30.512,28.871 23.442,25.768 Z" fill="#02B2B3"></path>
                </g>
                <path d="M40.007,80.469 C18.006,80.469 0.108,62.571 0.108,40.57 C0.108,18.57 18.006,0.672 40.007,0.672 C62.006,0.672 79.904,18.57 79.904,40.57 C79.904,62.57 62.006,80.469 40.007,80.469 Z M40.007,1.394 C18.404,1.394 0.83,18.969 0.83,40.57 C0.83,62.174 18.404,79.748 40.007,79.748 C61.609,79.748 79.183,62.174 79.183,40.57 C79.183,18.969 61.608,1.394 40.007,1.394 Z" fill="#E46980"></path>
                <path d="M40.007,77.922 C19.411,77.922 2.654,61.167 2.654,40.569 C2.654,19.973 19.411,3.217 40.007,3.217 C60.603,3.217 77.359,19.973 77.359,40.569 C77.358,61.167 60.603,77.922 40.007,77.922 Z M40.007,3.894 C19.783,3.894 3.33,20.348 3.33,40.57 C3.33,60.795 19.783,77.247 40.007,77.247 C60.229,77.247 76.683,60.795 76.683,40.57 C76.683,20.348 60.229,3.894 40.007,3.894 Z" fill="#E46980"></path>
            </g>
            <g transform="translate(102.000000, 19.000000)" id="Shape" fill="#E46980">
                <path d="M21.578,8.009 C19.774,5.127 17.229,3.258 13.449,3.247 C9.141,3.234 5.885,6.685 5.873,10.888 C5.861,15.091 9.848,16.858 13.088,18.412 L20.739,22.424 C23.766,24.351 25.301,26.798 25.292,30.419 C25.273,37.066 19.193,42.053 12.703,42.033 C7.117,42.018 2.764,38.547 0.915,33.382 L3.152,32.375 C4.845,36.641 7.974,39.624 12.816,39.638 C18.084,39.652 22.722,35.518 22.738,30.197 C22.75,25.674 18.127,23.747 14.675,22.036 L7.449,18.182 C4.793,16.529 3.308,14.182 3.318,10.99 C3.334,5.03 7.602,0.834 13.614,0.85 C17.659,0.861 21.484,3.055 23.39,6.52 L21.578,8.009 Z"></path>
                <polygon points="34.415 41.56 31.859 41.553 31.972 1.438 34.527 1.447"></polygon>
                <polygon points="45.593 39.198 55.809 39.227 55.802 41.62 43.033 41.585 43.145 1.469 45.699 1.476"></polygon>
                <polygon points="82.145 1.578 85.549 1.587 65.863 20.846 86.663 41.707 83.309 41.698 64.104 22.492 63.038 23.551 62.987 41.641 60.431 41.633 60.543 1.519 63.099 1.525 63.047 20.255"></polygon>
                <polygon points="93.366 4.007 93.325 18.581 109.499 18.627 109.492 21.024 93.319 20.978 93.266 39.333 109.866 39.377 109.859 41.771 90.706 41.716 90.817 1.601 109.972 1.655 109.964 4.052"></polygon>
                <path d="M134.175,41.839 L134.29,1.724 L142.325,1.747 C145.355,1.755 148.227,1.977 150.616,4.112 C153.055,6.25 153.95,9.227 153.941,12.421 C153.932,16.094 152.49,18.803 149.294,20.604 C154.236,21.625 157.577,25.624 157.563,30.734 C157.554,33.979 156.324,36.902 153.818,39.028 C150.989,41.412 148.008,41.878 144.444,41.87 L134.175,41.839 Z M136.79,19.929 L141.207,19.942 C143.921,19.947 146.1,20.118 148.395,18.47 C150.685,16.83 151.385,14.811 151.393,12.041 C151.4,9.436 150.393,6.877 148.113,5.435 C146.092,4.156 143.592,4.149 141.252,4.143 L136.834,4.13 L136.79,19.929 Z M136.734,39.455 L142.855,39.472 C145.673,39.479 148.599,39.594 151.051,37.95 C153.504,36.309 155.002,33.814 155.009,30.835 C155.018,27.907 153.59,24.98 150.875,23.641 C148.436,22.411 145.084,22.35 142.422,22.341 L136.78,22.326 L136.734,39.455 Z"></path>
                <polygon points="166.798 39.538 177.013 39.566 177.004 41.96 164.236 41.925 164.347 1.81 166.903 1.816"></polygon>
                <path d="M220.905,22.025 C220.873,33.309 211.322,42.592 200.043,42.561 C188.765,42.528 179.267,33.193 179.298,21.91 C179.328,10.631 188.824,1.343 200.158,1.376 C211.438,1.407 220.938,10.747 220.905,22.025 Z M181.852,21.915 C181.825,31.812 190.047,40.136 200.05,40.163 C210,40.19 218.321,31.864 218.35,22.019 C218.379,12.123 210.1,3.799 200.153,3.772 C190.148,3.744 181.879,12.02 181.852,21.915 Z"></path>
                <path d="M264.745,22.895 C264.837,27.949 264.08,32.366 260.506,36.237 C256.661,40.378 250.909,42.702 245.268,42.687 C234.149,42.657 224.706,33.264 224.735,22.199 C224.769,10.707 234.212,1.47 245.705,1.502 C252.994,1.523 258.892,5.161 263.08,10.922 L260.999,12.563 C257.446,7.235 252.031,3.918 245.538,3.9 C235.749,3.873 227.321,12.418 227.293,22.044 C227.266,31.941 235.435,40.264 245.436,40.292 C249.747,40.305 253.955,38.561 257.263,35.913 C260.725,32.994 262.014,29.647 262.186,25.284 L247.82,25.243 L247.829,22.847 L264.745,22.895 Z"></path>
                <path d="M289.578,8.761 C287.777,5.879 285.229,4.009 281.449,3.999 C277.143,3.988 273.885,7.436 273.873,11.64 C273.86,15.842 277.85,17.611 281.09,19.165 L288.739,23.175 C291.765,25.101 293.303,27.549 293.293,31.171 C293.276,37.818 287.193,42.805 280.704,42.785 C275.117,42.769 270.766,39.301 268.917,34.133 L271.154,33.129 C272.845,37.392 275.975,40.375 280.819,40.39 C286.085,40.406 290.724,36.27 290.737,30.95 C290.751,26.427 286.128,24.501 282.675,22.786 L275.448,18.936 C272.795,17.279 271.311,14.932 271.322,11.741 C271.336,5.782 275.605,1.588 281.616,1.604 C285.661,1.615 289.483,3.809 291.392,7.272 L289.578,8.761 Z"></path>
            </g>
        </g>
    </g>
</svg>